<svg width="120" height="160" viewBox="0 0 120 160" fill="none" xmlns="http://www.w3.org/2000/svg">
<path d="M102.802 87.0927C102.585 84.6556 100.262 80.0992 97.403 76.8145C92.7773 78.7102 87.9955 80.1992 83.1117 81.2644C79.3005 84.6556 71.0456 95.0393 67.9725 86.8806C59.2914 96.099 56.1162 92.7078 53.0464 82.3241C45.635 88.6812 46.3763 75.8615 45.635 70.4575C43.3065 67.5961 41.7216 65.2656 41.7216 65.2656C24.3594 71.5161 34.5232 74.3775 35.8984 85.6109L38.8638 79.7837C38.8638 79.7837 37.593 101.928 38.6464 111.359C51.88 120.153 84.5912 122.273 90.4144 117.716L83.8509 107.014C83.8531 106.803 90.209 93.2376 102.802 87.0927Z" fill="#5856D6"/>
<path d="M118.205 102.148C118.096 102.039 118.096 101.936 117.993 101.829C120.746 95.5785 117.146 90.0679 110.371 91.3398C108.677 88.2673 105.713 82.0157 103.913 79.0456C108.36 77.9859 112.066 73.1117 111.324 68.7674C119.26 66.2248 120.852 53.0863 115.876 47.5768C121.275 37.0875 116.829 29.4575 108.783 26.9149C106.56 14.9471 97.5612 9.96197 89.0921 10.704C77.8706 -5.61576 55.8505 -2.22343 53.9449 13.7764C44.629 13.0344 37.0066 21.9363 38.5948 30.7294C31.8193 32.0012 28.3256 42.0672 32.0313 47.5768C28.643 51.3912 30.5485 59.5446 34.7837 62.4103C28.5375 65.0595 19.4336 70.0392 17.4215 71.2045C13.3994 66.5425 3.97697 69.0862 5.35534 76.714C5.34751 76.8359 5.31538 76.955 5.26087 77.0643C5.20636 77.1736 5.13055 77.2709 5.03792 77.3505C-8.61855 88.4751 7.57833 115.176 28.6451 103.522C28.3277 105.535 27.7994 108.078 29.7039 109.456C28.9636 119.31 27.4809 132.236 28.5397 139.335C12.8722 152.579 44.5257 157.348 56.8027 153.428C59.0257 160.102 79.9871 161.057 89.0878 157.671C98.6157 154.174 101.897 152.584 101.687 146.227C101.368 137.328 100.945 131.924 100.839 124.719C112.488 124.61 124.663 112.107 118.205 102.148ZM33.7249 55.8443C32.9835 53.725 32.2432 50.8647 34.2543 49.1696C36.0544 47.3679 30.8671 43.7656 33.9369 37.8317C34.5717 36.5599 36.0544 33.4874 39.6536 33.3819C42.9354 33.2731 38.8068 26.2828 44.0996 20.7722C45.3496 19.2803 46.9562 18.1289 48.7701 17.4251C50.5839 16.7213 52.5461 16.4879 54.4743 16.7466C56.5918 16.9642 56.5918 14.5217 56.8038 13.5675C58.8148 1.27334 76.389 -1.58369 86.0223 11.4482C81.7829 13.3565 82.109 15.7925 83.4819 15.6913C84.8581 15.4737 85.0701 14.5261 88.7747 13.5719C92.5858 12.5122 97.3493 14.2073 100.841 17.5974C106.664 23.4247 106.347 32.2199 106.347 32.2199C106.238 34.126 109.416 34.7625 109.098 29.8884C115.556 32.431 117.142 40.5898 112.804 46.8413C112.615 47.1433 112.544 47.5038 112.602 47.855C112.661 48.2062 112.845 48.5239 113.121 48.7485C115.345 50.5502 116.439 55.0893 115.556 59.1322C115.096 61.244 114.074 65.0661 109.627 66.2313C109.204 66.3401 108.463 66.7612 108.57 68.1385C108.993 73.4359 104.656 77.9924 98.3004 75.8741C104.44 71.3176 110.475 60.4041 102.641 55.9531C99.1472 53.9404 98.195 49.2784 102.324 42.9202C104.759 39.0035 94.8067 42.497 91.2075 33.0674C89.9378 30.4182 79.986 36.351 74.9019 27.6634C74.7272 27.36 74.4498 27.1291 74.1199 27.0126C73.7899 26.896 73.4291 26.9015 73.1029 27.0281C63.2575 30.5237 60.3921 23.2201 60.2921 22.8937C58.6615 17.6355 32.0595 35.8407 36.8969 60.2964C35.3777 59.2033 34.2625 57.638 33.7249 55.8443ZM60.5084 77.6714C43.5702 73.115 36.7947 63.049 40.2895 47.8977C48.0183 54.2548 55.6396 52.1409 58.3931 47.0502C61.3574 41.5406 60.2975 33.8051 49.076 31.4746C51.7229 28.8258 54.8485 26.7043 58.2865 25.2231C59.7692 27.7657 64.0033 32.852 73.1083 30.0973C77.4478 36.3477 85.3918 35.9245 89.1965 35.2891C90.1312 37.222 91.4785 38.9259 93.1432 40.2806C94.808 41.6353 96.7496 42.6077 98.8309 43.1291C95.4426 49.6983 96.7133 55.3145 101.159 58.2814C103.489 59.871 104.865 61.0362 103.171 65.0628C96.821 80.0019 76.7064 82.0157 60.5084 77.6714ZM77.2358 82.5456C74.0595 85.3004 71.0951 89.1148 69.4015 88.7971C67.7079 88.4795 66.7545 84.4528 65.8023 81.6981C69.5639 82.4516 73.4041 82.7377 77.2358 82.5499V82.5456ZM57.6506 79.8964C59.2785 80.4321 60.9408 80.857 62.626 81.1682C63.1176 82.762 63.7191 84.3198 64.4261 85.8302C61.4618 88.1607 57.5441 91.5519 56.2733 90.5988C55.1091 89.7502 53.7318 86.1479 52.6741 83.0754C54.4222 82.1626 56.0873 81.0989 57.6506 79.8964ZM47.1683 82.4412C45.8986 82.1224 45.2627 77.1427 44.7344 73.3282C47.6329 75.6384 50.8862 77.4633 54.3677 78.7322C51.9339 80.3207 48.4401 82.7578 47.1683 82.4412ZM44.5224 47.1568C48.6069 44.6401 52.4362 41.7305 55.9559 38.4693C59.7649 46.0917 51.6871 51.4576 44.5235 47.1557L44.5224 47.1568ZM38.0643 64.2164C38.9027 66.3355 40.0834 68.3023 41.5592 70.0382C42.194 73.7471 42.5114 89.1105 49.9228 84.3429C51.1925 87.4154 53.7275 93.9313 56.3798 93.9846C57.1212 93.9999 59.0268 93.3482 65.5903 88.3685C69.1895 95.9974 76.4944 86.4613 81.8959 82.1169C86.6645 81.6248 91.2788 80.1458 95.4459 77.7737C97.0896 78.6121 98.8961 79.0821 100.74 79.1511C101.481 80.3163 102.645 82.4357 103.81 84.6606C94.2816 85.7203 84.9657 93.5603 81.0491 103.626C77.3434 97.6936 76.3911 94.3023 75.3324 96.7394C74.379 98.7522 76.2846 101.084 78.2967 104.58C80.5197 108.395 83.2721 113.057 85.8125 116.554C74.0616 119.732 48.4423 119.521 31.0812 106.17C32.5628 93.2426 36.162 80.8462 36.7968 78.0903C37.4328 75.23 34.5739 76.5019 34.151 78.4091C33.8336 79.6799 33.7271 80.1042 32.5628 84.2363C30.5507 78.9389 27.4809 73.1106 24.9405 70.1437C29.1734 68.1353 34.6782 65.4871 38.0654 64.2153L38.0643 64.2164ZM29.1724 99.7118C27.2668 101.83 14.3506 106.069 8.63385 100.029C11.4917 98.3344 14.0332 97.3802 13.2918 96.0039C12.5504 94.6276 12.0211 95.4741 6.62173 97.8056C5.09764 95.8076 4.04786 93.4885 3.55194 91.0242C8.74037 88.4805 10.1155 88.375 9.69262 87.3153C9.26976 86.2556 7.89248 86.1501 3.12908 88.0573C2.81166 83.2887 4.71724 80.9582 6.8337 79.4753C9.48064 77.6736 6.83371 73.9658 9.58718 72.3762C13.1864 70.2568 14.8745 73.5828 17.2095 73.8592C18.2661 73.9843 19.7499 73.5415 22.3968 71.7398C25.0427 74.4945 29.8072 83.5008 31.2888 89.7524C30.4103 93.0325 29.7042 96.3565 29.1734 99.7107L29.1724 99.7118ZM57.0136 150.571C43.3571 154.279 28.0071 148.981 27.2668 146.863C26.4189 145.379 28.8539 143.048 30.654 141.353C33.8292 143.578 48.1216 148.028 58.6018 145.803C58.733 146.254 58.9902 146.658 59.3431 146.968C58.3297 147.997 57.5373 149.223 57.0147 150.569L57.0136 150.571ZM58.1789 143.048C49.2233 144.361 40.0818 142.842 32.0302 138.704C29.5952 137.327 32.2422 117.407 32.453 111.05C50.3446 121.116 70.5646 123.657 87.9268 119.101C89.124 120.664 90.64 121.955 92.3741 122.887C94.1082 123.818 96.0205 124.37 97.9841 124.505C98.408 132.345 99.0429 137.325 98.5135 145.907C86.6561 150.675 64.425 147.073 61.5661 144.742C60.1521 138.162 59.9016 131.384 60.8258 124.717C60.8258 124.08 60.6139 123.021 59.8725 122.915C56.0624 122.28 57.968 140.291 58.18 143.047L58.1789 143.048ZM88.2442 154.915C73.741 159.471 60.8258 154.915 59.6551 152.902C59.3377 152.372 59.5464 151.1 61.8781 148.24C69.9222 151.313 89.2976 153.22 99.4603 148.77C98.3026 151.736 90.8922 154.066 88.2453 154.914L88.2442 154.915ZM112.17 117.3C110.136 118.968 107.799 120.227 105.289 121.009C103.278 117.092 101.981 114.205 100.948 115.393C99.8614 116.642 100.525 116.982 102.325 121.644C91.6325 123.446 87.9268 114.97 82.9514 107.234C85.9147 96.6382 95.5491 88.1618 105.182 87.7385C106.046 89.7276 107.073 91.6414 108.253 93.4602C108.665 93.8609 109.179 94.1417 109.738 94.2724C110.297 94.4032 110.882 94.3789 111.429 94.2022C112.176 94.0044 112.966 94.0293 113.699 94.274C114.433 94.5187 115.08 94.9724 115.559 95.5796C115.92 96.2274 116.109 96.9568 116.109 97.6985C116.109 98.4401 115.92 99.1695 115.559 99.8173C113.654 103.952 118.418 105.115 116.725 110.731C116.253 112.377 115.421 113.897 114.289 115.181C111.219 111.578 110.267 108.611 109.208 110.625C108.36 112.319 110.16 113.697 112.173 117.299L112.17 117.3Z" fill="black"/>
<path d="M64.5745 29.0042C65.8452 29.7452 65.2093 32.2889 61.6101 33.5607C58.8577 34.5138 55.8934 33.9839 55.9988 32.2889C56.1075 30.1695 58.9632 32.2889 62.7743 29.3219C62.9761 29.0475 63.2756 28.8615 63.6108 28.8023C63.946 28.7431 64.2911 28.8155 64.5745 29.0042Z" fill="black"/>
<path d="M63.9574 46.2124C60.8865 47.1655 60.0441 52.1463 61.8398 52.8872C62.0288 52.9467 62.2288 52.9624 62.4247 52.933C62.6206 52.9036 62.8072 52.83 62.9704 52.7177C63.1336 52.6054 63.2692 52.4574 63.3667 52.2849C63.4643 52.1123 63.5213 51.9198 63.5334 51.722C63.3976 50.56 63.4247 49.3904 64.6977 48.9672C66.2858 48.5429 67.5566 49.076 68.9371 50.6623C69.0627 50.8181 69.2197 50.9457 69.3978 51.0366C69.576 51.1276 69.7713 51.18 69.9711 51.1902C70.1708 51.2005 70.3705 51.1685 70.557 51.0962C70.7435 51.024 70.9127 50.9132 71.0536 50.7711C72.7146 49.1511 68.1914 44.9406 63.9574 46.2124Z" fill="black"/>
<path d="M89.7666 39.9001C87.9035 39.4654 86.142 38.674 84.5792 37.5696C82.9911 36.2978 80.5572 37.5696 82.4617 39.7945C84.371 41.7609 86.9292 42.9657 89.66 43.1847C91.5667 43.2913 91.8841 40.3244 89.7666 39.9001Z" fill="black"/>
<path d="M63.188 69.6669C65.0864 69.3853 67.0184 69.422 68.9047 69.7757C74.4095 70.8343 68.2699 59.1798 63.6119 59.9219C59.6942 60.5551 58.6365 70.6211 63.188 69.6669Z" fill="black"/>
<path d="M91.2702 46.5236C81.8478 38.5813 69.7795 45.9937 73.2732 55.8476C74.9668 60.5096 82.1663 64.5362 87.2471 63.5831C94.8694 62.4168 97.8338 52.0331 91.2702 46.5236ZM86.7177 60.8273C84.4947 61.2516 81.001 59.8742 78.5649 57.8603C82.6257 55.3381 86.4847 52.5041 90.1071 49.3839C94.2378 52.7751 91.5876 59.9797 86.7177 60.8273Z" fill="black"/>
</svg>
