<svg width="100" height="100" viewBox="0 0 100 100" fill="none" xmlns="http://www.w3.org/2000/svg">
<path d="M26.9639 60.1653C26.1471 60.4391 27.0228 62.227 27.2713 63.0998C27.3765 63.4604 26.8344 63.9124 27.3765 65.1087C27.6642 65.7017 28.0261 66.2555 28.4533 66.7565C28.8581 67.0737 29.478 66.6508 29.1196 65.9324C28.7612 65.2139 28.4533 64.6456 28.3507 64.3882C28.0944 63.7184 28.8628 63.3071 28.456 62.5347C27.4765 60.8351 27.5292 59.9597 26.9639 60.1653Z" fill="#007AFF"/>
<path d="M22.6051 77.2574C22.3488 78.2867 23.2051 78.4368 23.4256 77.7205C23.5939 77.1377 23.9334 76.6194 24.3997 76.2336C24.8661 75.8478 25.4375 75.6125 26.0393 75.5583C27.4745 75.404 28.7045 76.4338 29.166 76.9482C29.6786 77.4631 30.2934 77.1031 29.8323 76.382C29.2176 75.404 27.5261 74.0654 26.0908 74.426C24.8093 66.9096 12.4328 70.5361 15.3785 77.4123C15.6685 78.089 16.3521 77.4123 16.1469 76.6912C14.4043 71.6976 23.8351 68.6082 25.0146 74.5809C24.447 74.8299 23.9386 75.1974 23.5232 75.6588C23.1078 76.1203 22.7949 76.6652 22.6051 77.2574Z" fill="#007AFF"/>
<path d="M8.87049 76.126C8.87049 76.126 5.2311 79.3692 4.92322 79.7816C4.61533 80.1939 5.0769 81.8925 5.28216 82.3556C5.53847 82.8192 14.3546 88.894 14.3546 88.894C13.9364 89.3657 13.4914 89.8128 13.022 90.233C12.8683 90.2859 8.5626 87.5554 8.5626 87.5554C8.5626 87.5554 8.75944 90.5476 9.12627 91.0567C9.42732 91.4732 17.1224 95.9477 20.6586 97.2863C21.0318 97.4274 21.4308 97.4867 21.8287 97.46C22.2265 97.4334 22.6141 97.3215 22.9654 97.1319C27.4248 94.7118 35.3693 89.7694 35.6767 89.2022C36.0356 88.5842 36.4972 84.5685 36.4972 84.5685C29.1721 88.0016 28.8395 89.9698 26.1585 87.3313C25.2296 86.4172 20.9607 82.5248 20.9607 82.5248L8.87049 76.126Z" fill="#FF3B30"/>
<path d="M35.9809 76.5889C35.8272 76.6661 27.5259 80.0108 23.376 81.6819C24.3875 82.8978 26.7969 85.6785 28.3437 85.9074C30.0353 86.1136 38.6972 81.6856 38.9535 80.8101C39.2087 79.9892 36.9546 77.8745 35.9809 76.5889Z" fill="#FF3B30"/>
<path d="M41.8267 72.6246C42.6467 69.4838 39.1099 67.1155 35.9321 67.9909C35.9321 66.2918 34.5995 65.5195 33.3185 65.4682C31.1143 65.3625 30.4475 67.2186 31.0117 67.7335C31.268 67.9391 31.4727 67.8366 31.6269 67.5273C32.4469 65.5184 35.5742 66.6524 34.8047 68.4027C33.9848 68.7115 33.0616 69.5869 32.9101 70.2044C32.7564 70.8742 33.1664 71.0286 33.6279 70.5649C35.4732 68.9177 36.7542 68.5561 38.3947 68.9177C39.1542 69.0575 39.8281 69.493 40.2697 70.1294C40.7112 70.7658 40.8848 71.5516 40.7525 72.3158C39.2146 72.0578 38.1384 72.9851 38.4973 73.5513C38.7531 74.0144 40.4446 72.7789 41.5725 73.7057C42.0335 74.0662 42.1877 74.7355 41.9309 75.6617C41.6741 76.5879 42.6488 76.6909 42.854 75.9186C43.1061 74.8385 43.1588 73.1907 41.8267 72.6246Z" fill="#007AFF"/>
<path d="M18.1479 64.3887C17.8222 65.8248 17.3051 67.2102 16.6105 68.5074C16.0979 69.3823 16.8537 69.7333 17.2768 69.1766C18.1021 67.9836 18.7256 66.6618 19.122 65.2646C19.5831 63.5143 19.481 63.3086 19.0168 62.6906C18.7605 62.3301 19.9904 60.2192 19.222 60.0135C18.9142 59.9607 18.6068 59.9607 18.5042 60.4254C18.4015 61.5064 17.3426 62.5236 17.9915 63.463C18.1041 63.5855 18.1788 63.7382 18.2065 63.9025C18.2343 64.0668 18.2139 64.2357 18.1479 64.3887Z" fill="#007AFF"/>
<path d="M90.5679 56.5609C90.4627 55.3767 89.3379 53.1627 87.9538 51.5667C85.7142 52.4878 83.399 53.2113 81.0345 53.7289C79.1893 55.3767 75.1925 60.4221 73.7047 56.4578C69.5016 60.937 67.9643 59.2892 66.478 54.2438C62.8897 57.3327 63.2486 51.1036 62.8897 48.4778C61.7623 47.0875 60.995 45.9551 60.995 45.9551C52.5889 48.9922 57.5098 50.3825 58.1756 55.8409L59.6113 53.0094C59.6113 53.0094 58.9961 63.7696 59.5061 68.3519C65.9133 72.625 81.7508 73.6548 84.5702 71.4408L81.3924 66.2405C81.3934 66.1379 84.4707 59.5467 90.5679 56.5609Z" fill="#5856D6"/>
<path d="M4.9736 71.6962C5.03291 72.2815 5.2258 72.8452 5.53727 73.3435C5.84463 73.6527 6.35725 73.3435 6.15252 72.6229C5.12728 69.2248 8.14983 65.5686 11.6876 69.2248C12.1929 69.7471 12.6102 69.2776 12.3545 68.6068C11.8418 67.3713 12.156 66.516 12.9181 66.2384C14.1081 65.8054 14.9233 67.1255 15.4807 66.8051C15.5388 66.7608 15.5869 66.7044 15.6215 66.6399C15.6562 66.5754 15.6767 66.5041 15.6817 66.431C15.6867 66.3578 15.676 66.2844 15.6505 66.2157C15.6249 66.147 15.5849 66.0847 15.5333 66.0328C15.2116 65.637 14.7832 65.3427 14.2994 65.1849C13.8156 65.027 13.2968 65.0124 12.805 65.1427C12.3131 65.2731 11.869 65.5428 11.5257 65.9198C11.1823 66.2968 10.9543 66.7651 10.8687 67.2688C8.30615 65.6722 4.92149 67.7831 4.92149 70.6151C2.15367 71.0269 2.10262 73.704 3.07628 74.8369C3.5889 75.4544 4.30677 75.1969 3.89678 74.4764C3.28206 73.0866 3.64047 71.9019 4.9736 71.6962Z" fill="#007AFF"/>
<path d="M99.1298 63.8739C99.0772 63.821 99.0772 63.7708 99.0272 63.719C100.36 60.6819 98.6172 58.0043 95.3368 58.6223C94.5168 57.1294 93.0816 54.0917 92.21 52.6485C94.3631 52.1336 96.1573 49.7653 95.7983 47.6544C99.6403 46.4189 100.411 40.0349 98.002 37.3578C100.616 32.2611 98.4635 28.5537 94.5678 27.3182C93.4916 21.503 89.1348 19.0808 85.0344 19.4413C79.6014 11.5115 68.9401 13.1599 68.0175 20.9342C63.507 20.5737 59.8166 24.8991 60.5855 29.1717C57.3051 29.7896 55.6136 34.6807 57.4077 37.3578C55.7672 39.2113 56.6898 43.173 58.7403 44.5654C55.7162 45.8527 51.3084 48.2723 50.3342 48.8385C48.3869 46.5733 43.8249 47.8092 44.4923 51.5156C44.4885 51.5749 44.4729 51.6327 44.4465 51.6858C44.4201 51.739 44.3834 51.7862 44.3386 51.8249C37.7266 57.2303 45.5686 70.2045 55.7683 64.5416C55.6146 65.5196 55.3588 66.7556 56.2809 67.4249C55.9225 72.2128 55.2046 78.4937 55.7172 81.9432C48.1316 88.3785 63.457 90.6955 69.4011 88.7908C70.4774 92.0341 80.6261 92.4977 85.0323 90.8525C89.6453 89.1535 91.2342 88.3811 91.1321 85.2922C90.9779 80.9678 90.7732 78.342 90.7216 74.8413C96.362 74.7884 102.257 68.7132 99.1298 63.8739ZM58.2277 41.375C57.8688 40.3452 57.5104 38.9554 58.484 38.1318C59.3556 37.2563 56.8441 35.506 58.3303 32.6227C58.6377 32.0047 59.3556 30.5118 61.0982 30.4605C62.6871 30.4076 60.6882 27.0111 63.2507 24.3334C63.856 23.6085 64.6338 23.0491 65.512 22.7071C66.3902 22.3651 67.3402 22.2517 68.2738 22.3774C69.299 22.4832 69.299 21.2963 69.4016 20.8327C70.3753 14.859 78.884 13.4707 83.5481 19.8029C81.4955 20.7302 81.6534 21.9138 82.3182 21.8646C82.9845 21.7589 83.0871 21.2985 84.8807 20.8348C86.7259 20.3199 89.0322 21.1436 90.7227 22.7908C93.5421 25.6223 93.3884 29.8959 93.3884 29.8959C93.3358 30.8221 94.8747 31.1314 94.7205 28.763C97.8472 29.9985 98.6151 33.9628 96.5146 37.0005C96.4235 37.1472 96.3887 37.3224 96.417 37.493C96.4453 37.6636 96.5347 37.818 96.6683 37.9272C97.7451 38.8026 98.2746 41.0082 97.8472 42.9726C97.6246 43.9987 97.1299 45.8559 94.9768 46.4221C94.772 46.4749 94.4131 46.6795 94.4647 47.3488C94.6694 49.9228 92.57 52.1368 89.4927 51.1075C92.4653 48.8935 95.3873 43.5906 91.5942 41.4279C89.9027 40.4499 89.4417 38.1846 91.4405 35.0952C92.6195 33.192 87.8012 34.8895 86.0586 30.3077C85.4439 29.0205 80.6256 31.9032 78.164 27.6819C78.0795 27.5345 77.9452 27.4223 77.7854 27.3657C77.6256 27.309 77.451 27.3117 77.293 27.3732C72.5263 29.0717 71.139 25.5229 71.0905 25.3643C70.3011 22.8093 57.4214 31.6553 59.7635 43.5383C59.0279 43.0071 58.488 42.2466 58.2277 41.375ZM71.1953 51.9808C62.9944 49.7668 59.714 44.8758 61.406 37.5138C65.1481 40.6027 68.838 39.5755 70.1711 37.102C71.6063 34.4249 71.0932 30.6662 65.6602 29.5338C66.9417 28.2467 68.4549 27.2159 70.1195 26.4962C70.8374 27.7316 72.8873 30.2031 77.2956 28.8645C79.3966 31.9016 83.2429 31.696 85.0849 31.3872C85.5375 32.3264 86.1898 33.1544 86.9958 33.8126C87.8018 34.4709 88.7418 34.9433 89.7495 35.1967C88.1091 38.3887 88.7243 41.1176 90.8769 42.5592C92.0047 43.3316 92.671 43.8978 91.8511 45.8543C88.7764 53.1132 79.0377 54.0917 71.1953 51.9808ZM79.294 54.3492C77.7562 55.6877 76.3209 57.5412 75.501 57.3868C74.681 57.2325 74.2194 55.2759 73.7584 53.9374C75.5796 54.3035 77.4389 54.4426 79.294 54.3513V54.3492ZM69.8116 53.0619C70.5998 53.3222 71.4046 53.5287 72.2205 53.6799C72.4585 54.4543 72.7497 55.2113 73.0921 55.9452C71.6568 57.0776 69.76 58.7254 69.1448 58.2623C68.5811 57.8499 67.9143 56.0996 67.4022 54.6066C68.2485 54.1631 69.0547 53.6462 69.8116 53.0619ZM64.7365 54.2984C64.1218 54.1435 63.8139 51.7239 63.5581 49.8705C64.9614 50.993 66.5365 51.8797 68.2222 52.4963C67.0438 53.2681 65.3523 54.4523 64.7365 54.2984ZM63.4555 37.1538C65.433 35.9309 67.287 34.5171 68.9911 32.9325C70.8353 36.6362 66.9243 39.2435 63.456 37.1532L63.4555 37.1538ZM60.3287 45.443C60.7346 46.4727 61.3062 47.4284 62.0208 48.2718C62.3281 50.074 62.4818 57.5391 66.0701 55.2225C66.6849 56.7154 67.9122 59.8815 69.1964 59.9074C69.5553 59.9148 70.4779 59.5982 73.6557 57.1785C75.3983 60.8854 78.9351 56.2518 81.5503 54.1409C83.8591 53.9018 86.0931 53.1831 88.1106 52.0305C88.9065 52.4379 89.7811 52.6663 90.6737 52.6998C91.0327 53.266 91.5963 54.2958 92.16 55.3769C87.547 55.8918 83.0366 59.7013 81.1403 64.5923C79.3461 61.7096 78.8851 60.0618 78.3725 61.246C77.9109 62.224 78.8335 63.3569 79.8077 65.056C80.884 66.9094 82.2166 69.1747 83.4465 70.8738C77.7572 72.418 65.3533 72.3154 56.9477 65.8283C57.6651 59.5469 59.4077 53.5234 59.715 52.1844C60.0229 50.7945 58.6387 51.4125 58.434 52.3393C58.2803 52.9567 58.2288 53.1629 57.6651 55.1707C56.6909 52.5967 55.2046 49.7647 53.9747 48.3231C56.0241 47.3472 58.6893 46.0605 60.3292 45.4425L60.3287 45.443ZM56.0236 62.6903C55.1009 63.7195 48.8474 65.7792 46.0796 62.8446C47.4632 62.021 48.6937 61.5574 48.3348 60.8886C47.9759 60.2199 47.7195 60.6312 45.1054 61.7641C44.3675 60.7932 43.8592 59.6664 43.6191 58.469C46.1312 57.233 46.7969 57.1817 46.5922 56.6668C46.3875 56.1519 45.7207 56.1006 43.4144 57.0273C43.2607 54.7103 44.1833 53.5779 45.208 52.8573C46.4896 51.9819 45.208 50.1803 46.5412 49.4079C48.2837 48.3781 49.1011 49.9942 50.2316 50.1284C50.7432 50.1892 51.4616 49.9741 52.7431 49.0986C54.0241 50.4372 56.3309 54.8134 57.0483 57.851C56.6229 59.4448 56.2811 61.0599 56.0241 62.6897L56.0236 62.6903ZM69.5032 87.4026C62.8913 89.2047 55.4594 86.6302 55.1009 85.6009C54.6904 84.8799 55.8693 83.7475 56.7409 82.9238C58.2782 84.0049 65.1981 86.1671 70.2721 85.086C70.3357 85.3052 70.4602 85.5017 70.6311 85.6522C70.1404 86.1522 69.7568 86.7476 69.5037 87.402L69.5032 87.4026ZM70.0674 83.7475C65.7315 84.3853 61.3055 83.6473 57.4072 81.6366C56.2283 80.9673 57.5098 71.2882 57.6119 68.1993C66.2743 73.0904 76.0641 74.3253 84.4702 72.1113C85.0498 72.8711 85.7838 73.4981 86.6234 73.9509C87.463 74.4036 88.3889 74.6717 89.3395 74.7372C89.5448 78.5466 89.8522 80.9668 89.5959 85.1368C83.8549 87.4533 73.0915 85.703 71.7074 84.5706C71.0228 81.3731 70.9015 78.0798 71.3489 74.8402C71.3489 74.531 71.2463 74.0161 70.8874 73.9648C69.0427 73.6561 69.9653 82.4079 70.0679 83.7469L70.0674 83.7475ZM84.6239 89.5135C77.602 91.7275 71.349 89.5135 70.7821 88.5355C70.6284 88.278 70.7295 87.66 71.8584 86.2702C75.7531 87.7631 85.1339 88.6898 90.0543 86.5276C89.4938 87.9688 85.9059 89.1011 84.6244 89.5129L84.6239 89.5135ZM96.2078 71.2364C95.2229 72.0466 94.0918 72.6585 92.8763 73.0386C91.9026 71.1355 91.2748 69.7324 90.7748 70.3097C90.2485 70.9166 90.5695 71.0821 91.4411 73.3473C86.2644 74.2228 84.4702 70.1041 82.0613 66.3453C83.496 61.1968 88.1606 57.0781 92.8247 56.8724C93.2429 57.8389 93.7402 58.7688 94.3115 59.6526C94.511 59.8473 94.7595 59.9837 95.0304 60.0473C95.3012 60.1108 95.5842 60.099 95.8489 60.0132C96.2109 59.917 96.593 59.9291 96.9483 60.048C97.3035 60.1669 97.6165 60.3874 97.8488 60.6824C98.0235 60.9972 98.1152 61.3516 98.1152 61.712C98.1152 62.0724 98.0235 62.4268 97.8488 62.7415C96.9262 64.7504 99.233 65.3155 98.413 68.0444C98.1845 68.8442 97.7816 69.5828 97.2336 70.2066C95.7473 68.4562 95.2862 67.0146 94.7736 67.9931C94.3631 68.8163 95.2347 69.4855 96.2094 71.2359L96.2078 71.2364Z" fill="black"/>
<path d="M72.0674 30.6692C72.6826 30.3092 72.3747 29.0732 70.6322 28.4552C69.2996 27.9921 67.8643 28.2495 67.9154 29.0732C67.968 30.103 69.3506 29.0732 71.1958 30.5148C71.2935 30.6481 71.4385 30.7386 71.6008 30.7673C71.7631 30.7961 71.9302 30.7609 72.0674 30.6692Z" fill="black"/>
<path d="M71.7605 36.6888C70.2736 37.1519 69.8658 39.5721 70.7352 39.9321C70.8267 39.961 70.9235 39.9686 71.0184 39.9544C71.1132 39.9401 71.2036 39.9043 71.2826 39.8498C71.3616 39.7952 71.4272 39.7233 71.4745 39.6394C71.5217 39.5556 71.5493 39.4621 71.5552 39.3659C71.4894 38.8013 71.5026 38.233 72.1189 38.0274C72.8878 37.8212 73.503 38.0802 74.1714 38.851C74.2322 38.9267 74.3082 38.9887 74.3945 39.0329C74.4808 39.0771 74.5753 39.1025 74.672 39.1075C74.7687 39.1125 74.8654 39.097 74.9557 39.0619C75.046 39.0268 75.128 38.9729 75.1962 38.9039C76.0003 38.1167 73.8104 36.0708 71.7605 36.6888Z" fill="black"/>
<path d="M81.0877 33.8571C81.9898 34.0683 82.8426 34.4529 83.5992 34.9895C84.3682 35.6075 85.5466 34.9895 84.6245 33.9084C83.7001 32.9529 82.4615 32.3675 81.1393 32.2611C80.2162 32.2093 80.0625 33.651 81.0877 33.8571Z" fill="black"/>
<path d="M73.7615 43.4336C72.8424 43.5704 71.907 43.5526 70.9937 43.3807C68.3285 42.8663 71.301 48.5293 73.5563 48.1687C75.453 47.861 75.9651 42.97 73.7615 43.4336Z" fill="black"/>
<path d="M84.9799 36.8444C80.418 32.9853 74.5749 36.587 76.2665 41.375C77.0865 43.6402 80.5722 45.5968 83.0321 45.1337C86.7225 44.5669 88.1578 39.5215 84.9799 36.8444ZM82.7758 43.7946C81.6995 44.0008 80.008 43.3315 78.8285 42.353C80.7946 41.1274 82.663 39.7504 84.4168 38.2342C86.4167 39.882 85.1336 43.3828 82.7758 43.7946Z" fill="black"/>
<g filter="url(#filter0_n_386_18013)">
<path d="M21.5671 61.7179C19.5468 59.181 17.944 56.4637 17.1196 53.313C16.8151 52.1494 16.8156 50.9826 17.0648 49.8113C17.122 49.5427 17.2166 49.2789 17.137 48.9383C15.9041 48.8868 14.692 49.0197 13.4915 49.3235C11.5599 49.8123 9.68398 50.4834 7.80015 51.1297C7.09954 51.37 6.40138 51.3938 5.72906 51.0277C4.9657 50.612 4.59908 49.9196 4.64321 49.0683C4.75187 46.9719 4.8761 44.8764 5.04045 42.7825C5.17746 41.0369 5.91626 39.647 6.96914 38.3451C8.56193 36.3755 10.2703 34.5187 12.063 32.7441C12.478 32.3332 12.6622 31.9141 12.6177 31.3317C12.4488 29.1228 12.5313 26.9105 12.6342 24.7035C12.7583 22.0408 13.0263 19.3839 14.1526 16.9338C15.7391 13.4829 18.319 11.5579 22.1428 11.3709C27.6241 11.1029 30.8846 14.5896 32.0265 19.2964C32.8881 22.8476 32.9749 26.4756 32.8204 30.1021C32.7632 31.4445 32.9425 32.4691 34.0005 33.4351C35.8274 35.1031 37.3955 37.0474 38.9459 38.9953C39.9304 40.2322 40.3533 41.6531 40.4538 43.2097C40.5726 45.0496 40.6937 46.8894 40.8137 48.7292C40.9386 50.6446 39.6107 51.7206 37.7521 51.1328C35.955 50.5644 34.1879 49.8955 32.3625 49.4206C31.0023 49.0667 29.6263 48.8614 28.1775 48.9562C28.2605 49.6925 28.498 50.36 28.5329 51.0658C28.618 52.7858 28.154 54.379 27.4866 55.9201C26.6415 57.8715 25.5655 59.6834 24.252 61.3432C24.1466 61.4764 24.0344 61.6045 23.9192 61.7289C22.9683 62.7564 22.579 62.7599 21.5671 61.7179ZM29.331 24.5237C29.3351 23.8578 29.28 23.1976 29.2038 22.5356C28.9863 20.6435 28.404 18.8988 27.2741 17.3711C24.9505 14.2295 20.1084 14.3364 17.927 17.5806C17.3047 18.5061 16.8514 19.5224 16.5686 20.6089C16.0007 22.7902 16.0765 25.0385 15.9936 27.2622C15.8704 30.5684 16.0672 33.8707 16.3449 37.1664C16.561 39.7307 16.9143 42.2724 17.4602 44.7867C17.5681 45.2834 17.7881 45.4419 18.275 45.425C21.2238 45.323 24.1739 45.2682 27.1225 45.4237C27.6407 45.451 27.8482 45.2533 27.9673 44.7349C28.7613 41.2811 29.1038 37.7663 29.3035 34.2376C29.4842 31.0447 29.5653 27.8461 29.331 24.5237ZM32.697 45.8271C34.0119 46.1658 35.3379 46.4665 36.6195 46.9253C37.171 47.1227 37.3374 46.8995 37.3538 46.3779C37.3875 45.3038 37.2172 44.2433 37.1683 43.1763C37.1184 42.0864 36.583 41.2827 35.9207 40.5185C35.0325 39.4937 34.1501 38.4635 33.2585 37.4419C33.0321 37.1825 32.8315 36.8858 32.4793 36.6825C32.4558 36.8326 32.4323 36.9132 32.4321 36.9939C32.425 39.5484 32.1099 42.0753 31.7936 44.6025C31.6713 45.5793 31.6765 45.58 32.697 45.8271ZM13.622 44.6202C13.2665 42.0076 13.0374 39.381 12.9009 36.5548C11.7083 37.9343 10.6538 39.1432 9.61303 40.3644C9.31154 40.7181 9.02497 41.0909 8.77684 41.485C8.59793 41.7691 8.41751 42.0912 8.37006 42.4166C8.17565 43.7498 8.02242 45.0891 8.11834 46.4446C8.15092 46.905 8.3142 47.0305 8.76306 46.8906C10.1606 46.4553 11.5745 46.0803 13.0049 45.7707C13.7914 45.6004 13.8203 45.5266 13.622 44.6202ZM20.852 49.5514C19.7685 52.3724 21.1748 55.9599 22.7978 57.0994C22.974 56.8973 23.1687 56.7027 23.3312 56.483C24.8798 54.3889 25.5138 52.1226 24.5776 49.5523C24.423 49.1279 24.1865 48.9447 23.7373 48.9643C23.048 48.9943 22.3561 48.9867 21.6661 48.9665C21.2843 48.9553 21.0142 49.0731 20.852 49.5514Z" fill="#007AFF"/>
<path d="M18.6793 6.6597C17.3228 3.45497 19.0408 0.325717 22.3344 0.0232115C24.1464 -0.143213 25.6229 0.584929 26.561 2.21946C27.5473 3.93785 27.4761 5.68208 26.3405 7.29641C25.2788 8.80564 23.76 9.35641 21.9866 9.10495C20.5009 8.89428 19.4038 8.06932 18.6793 6.6597Z" fill="#007AFF"/>
<path d="M10.3937 16.0844C10.6407 16.0844 10.8299 16.0706 11.0166 16.0876C11.5796 16.1388 11.8335 16.4372 11.6899 16.9922C11.4811 17.7985 11.213 18.5893 10.9514 19.3802C10.8391 19.7199 10.5769 19.8581 10.2233 19.8801C9.21093 19.943 8.24807 20.1633 7.39157 20.7785C5.96252 21.8049 5.09987 23.1307 5.15811 24.9825C5.19383 26.1179 5.23395 27.2533 5.25158 28.3891C5.26917 29.5227 4.61694 30.3556 3.6787 30.4365C2.53405 30.5352 1.70361 29.9247 1.58231 28.7192C1.37199 26.6289 1.22822 24.5131 1.72644 22.4506C2.57514 18.9372 4.99903 17.1132 8.28221 16.3021C8.95216 16.1366 9.64164 16.068 10.3937 16.0844Z" fill="#007AFF"/>
<path d="M39.1106 16.8885C42.378 18.4714 43.9705 21.0995 43.9779 24.7395C43.9806 26.0689 44.0548 27.4051 43.8593 28.7265C43.6382 30.2207 42.2681 30.9128 41.0532 30.1656C40.5311 29.8445 40.2394 29.3803 40.2431 28.7388C40.2505 27.4293 40.2821 26.1192 40.2528 24.8105C40.1914 22.0652 38.3615 20.1437 35.698 19.985C34.6797 19.9244 34.6051 19.8675 34.2903 18.867C34.1234 18.3366 33.9584 17.8053 33.8047 17.2707C33.5631 16.4308 33.7893 16.1199 34.6544 16.0876C36.1784 16.0308 37.6559 16.253 39.1106 16.8885Z" fill="#007AFF"/>
<path d="M32.7933 7.74638C34.8308 5.72264 37.8461 6.25754 38.9057 8.79118C39.4739 10.1499 39.1321 11.8702 38.0915 12.8887C36.9652 13.9912 35.3243 14.2449 33.9006 13.5366C32.6007 12.8899 31.8215 11.4368 31.9347 9.95618C31.9974 9.13515 32.2575 8.41394 32.7933 7.74638Z" fill="#007AFF"/>
<path d="M6.11883 9.81364C6.48475 6.89096 9.5177 5.77745 11.5302 6.96147C12.9312 7.78575 13.6756 9.51787 13.2552 11.1386C12.8124 12.8457 11.3728 13.9592 9.64696 13.9295C7.9965 13.9012 6.57139 12.7199 6.22071 11.079C6.13595 10.6824 6.05685 10.2814 6.11883 9.81364Z" fill="#007AFF"/>
<path d="M24.99 27.1934C25.4155 28.3248 25.2698 29.341 24.4775 30.1551C23.7631 30.8891 22.8588 31.09 21.8732 30.721C20.797 30.3182 20.2256 29.3897 20.27 28.0988C20.308 26.9922 20.9932 26.0969 22.038 25.7887C23.0955 25.4767 24.2194 25.9093 24.8241 26.8635C24.8808 26.953 24.9244 27.0513 24.99 27.1934Z" fill="#007AFF"/>
</g>
<path d="M20.9688 85.9586C20.9688 86.7309 21.2761 94.6596 21.2761 95.6895C21.2761 97.1311 22.3524 97.028 22.3524 96.3069C22.3524 95.0715 22.1477 88.1213 22.0961 86.834C22.045 85.4955 20.9688 85.238 20.9688 85.9586Z" fill="black"/>
<path d="M35.0605 75.1508C34.9039 75.0652 34.7235 75.0339 34.5474 75.0618C34.3712 75.0898 34.2092 75.1753 34.0864 75.3051C33.5227 75.7682 34.65 76.1288 35.1116 76.3862C27.6286 79.5269 21.9388 81.7404 21.2214 81.7922C20.1962 81.6378 11.7901 77.2617 9.17593 75.6657C9.94486 75.0477 12.3543 74.3266 11.6364 73.7625C11.2264 73.4538 10.9212 73.5669 10.5091 73.66C8.97909 74.0057 4.81973 76.4401 3.02556 77.7787C1.34613 79.0157 -1.00644 80.9865 0.462467 82.4636C2.00032 83.8021 4.56289 85.8099 5.99812 86.7885C5.99812 87.7665 6.12654 90.4943 6.15232 91.5759C6.16634 91.8706 6.29506 92.148 6.51074 92.3483C9.07383 94.6654 19.9909 100.483 21.9903 99.9683C24.604 99.299 34.7016 93.7387 37.8794 90.9072C38.8531 90.0318 38.341 87.0972 38.4431 84.1627C41.3135 82.1538 42.7793 81.2789 42.7998 80.4558C42.8256 79.4228 39.161 77.0555 35.0605 75.1508ZM6.25443 85.1898C5.28077 84.4693 1.67559 82.2606 1.43665 81.3804C1.21455 80.561 4.35816 78.2397 7.79228 76.438C9.6375 77.7248 16.8131 81.4317 19.8372 82.7189C12.8669 88.8967 13.8432 89.4635 12.7643 89.3604C12.0464 89.4122 7.48492 86.0653 6.25443 85.1898ZM37.2636 89.3604C34.9574 91.9349 32.4969 92.9642 29.3191 94.8689C26.9102 96.208 23.4245 98.422 21.7846 98.5245C19.632 98.6789 11.5848 93.994 8.15333 91.78C8.00012 91.6782 7.87356 91.5408 7.78434 91.3795C7.69512 91.2182 7.64585 91.0377 7.64071 90.8533C7.58808 90.0296 7.53545 88.6911 7.53545 87.6613C16.7615 94.0453 11.1748 90.3389 21.2719 83.4395C30.3443 91.5738 23.8861 91.3692 37.1615 84.8811C37.211 86.1171 37.3163 88.1762 37.2636 89.3604ZM38.0842 82.6671C37.6669 82.9692 37.2203 83.228 36.751 83.4395C30.797 86.2498 29.1144 87.9187 28.0891 88.0218C26.9613 88.1249 26.7055 86.4258 22.7072 82.8733C25.526 81.9466 31.4206 79.5782 36.391 77.4673C38.2857 78.2397 40.9015 79.8357 40.9525 80.4537C40.9546 80.8655 39.1094 81.9978 38.0847 82.6671H38.0842Z" fill="black"/>
<defs>
<filter id="filter0_n_386_18013" x="1.38867" y="0" width="42.6055" height="62.499" filterUnits="userSpaceOnUse" color-interpolation-filters="sRGB">
<feFlood flood-opacity="0" result="BackgroundImageFix"/>
<feBlend mode="normal" in="SourceGraphic" in2="BackgroundImageFix" result="shape"/>
<feTurbulence type="fractalNoise" baseFrequency="1 1" stitchTiles="stitch" numOctaves="3" result="noise" seed="1291" />
<feColorMatrix in="noise" type="luminanceToAlpha" result="alphaNoise" />
<feComponentTransfer in="alphaNoise" result="coloredNoise1">
<feFuncA type="discrete" tableValues="1 1 1 1 1 1 1 1 1 1 1 1 1 1 1 1 1 1 1 1 1 1 1 1 1 1 1 1 1 1 1 1 1 1 1 1 1 1 1 1 1 1 1 1 1 1 1 1 1 1 1 0 0 0 0 0 0 0 0 0 0 0 0 0 0 0 0 0 0 0 0 0 0 0 0 0 0 0 0 0 0 0 0 0 0 0 0 0 0 0 0 0 0 0 0 0 0 0 0 0 "/>
</feComponentTransfer>
<feComposite operator="in" in2="shape" in="coloredNoise1" result="noise1Clipped" />
<feFlood flood-color="rgba(0, 0, 0, 0.25)" result="color1Flood" />
<feComposite operator="in" in2="noise1Clipped" in="color1Flood" result="color1" />
<feMerge result="effect1_noise_386_18013">
<feMergeNode in="shape" />
<feMergeNode in="color1" />
</feMerge>
</filter>
</defs>
</svg>
