<svg width="237" height="180" viewBox="0 0 237 180" fill="none" xmlns="http://www.w3.org/2000/svg">
<path d="M227.791 102.227C227.135 108.276 219.658 118.431 209.315 129.845C192.364 148.518 167.238 161.631 152.426 174.462C144.785 181.087 142.569 174.462 142.569 174.462L140.258 79.2206C140.258 79.2206 158.192 56.2923 171.222 54.8192C184.252 53.3462 210.548 68.5606 210.548 68.5606C210.548 68.5606 229.986 81.1918 227.791 102.227Z" fill="#007AFF"/>
<path d="M227.306 35.4824C226.187 40.051 227.683 46.3844 225.559 50.5758C221.995 57.6209 211.574 62.2962 210.034 70.0315C209.942 70.4798 198.344 76.0589 192.364 74.1518C189.234 73.1626 187.645 70.1169 190.054 63.2284C190.81 61.0936 195.044 60.2965 196.184 58.3111L195.949 58.1332C190.161 53.771 189.534 44.5271 190.731 38.3574C191.929 32.1876 194.673 26.2599 197.617 20.6238C199.884 16.283 205.002 13.9275 209.906 14.0058C216.072 14.1125 222.58 16.5747 225.787 21.8336C228.239 25.84 228.418 30.9138 227.306 35.4824Z" fill="url(#paint0_linear_3225_8645)"/>
<path d="M209.313 129.833C192.363 148.506 167.717 161.271 152.905 174.101C151.8 172.344 151.597 179.212 151.497 177.049C151.105 166.239 151.198 155.416 151.298 144.599C151.391 134.096 151.483 123.599 152.146 113.117C152.773 103.354 153.971 93.3697 158.447 84.6523C159.458 85.5537 160.292 86.6347 160.907 87.8404C166.545 97.5113 170.109 108.178 173.673 118.767C175.436 123.986 177.199 129.226 178.962 134.487C182.914 132.32 186.446 129.464 189.39 126.054C192.099 123.058 194.515 119.82 197.003 116.647C198.742 114.426 202.135 108.107 204.844 110.484C209.235 114.305 209.591 123.051 209.313 129.833Z" fill="url(#paint1_linear_3225_8645)"/>
<path d="M198.825 2.23675C195.667 3.90194 192.31 5.86601 188.774 5.33229C188.684 6.17988 188.823 7.03602 189.177 7.81186C189.53 8.5877 190.085 9.25494 190.784 9.74432L188.589 10.2353C188.498 10.2408 188.41 10.2666 188.331 10.311C188.252 10.3554 188.184 10.4171 188.133 10.4915C188.106 10.571 188.096 10.6554 188.105 10.7389C188.113 10.8224 188.14 10.9031 188.183 10.9754C188.723 12.2333 189.61 13.3119 190.742 14.0852C190.349 14.9249 188.931 14.7399 188.446 15.5084C188.339 15.7366 188.283 15.9857 188.283 16.2378C188.283 16.49 188.339 16.739 188.446 16.9672C188.935 18.2949 189.772 19.4672 190.87 20.3617C189.558 21.7849 190.378 24.4179 192.188 25.0655C193.999 25.713 196.173 24.4819 196.793 22.6531C196.874 23.4762 196.684 24.3032 196.252 25.0085C202.232 25.9479 208.626 26.8303 214.129 24.2969C213.872 24.8659 213.731 25.4804 213.715 26.1044C215.043 26.5197 216.452 26.6076 217.821 26.3606C218.106 29.2917 217.843 32.2502 217.044 35.085C216.552 36.8499 215.847 38.5577 215.533 40.3581C215.137 42.1711 215.462 44.0667 216.438 45.6455C217.386 45.5601 218.056 44.6705 218.42 43.7952C218.681 42.8828 219.078 42.0146 219.596 41.2192C221.022 39.554 223.987 40.166 225.135 42.0091C226.282 43.8522 225.847 46.3286 224.75 48.1859C224.071 49.2813 223.175 50.2257 222.115 50.9602C221.056 51.6948 219.856 52.2038 218.591 52.4557C218.798 54.4411 219.012 56.4265 219.218 58.4048C222.975 54.8467 227.18 51.7938 230.559 47.9013C233.938 44.0087 236.497 39.0274 236.062 33.8895C235.798 30.7228 234.415 27.7127 234.308 24.5317C234.259 23.1085 234.472 21.6497 234.415 20.2122C234.282 17.922 233.478 15.7213 232.103 13.8832C230.728 12.045 228.843 10.6504 226.681 9.87241C224.864 9.2533 222.861 9.0754 221.25 8.02932C219.247 6.73418 218.206 4.3218 216.217 2.99819C214.079 1.57495 210.757 0.991414 208.269 0.286912C205.033 -0.609727 201.669 0.749468 198.825 2.23675Z" fill="#3D5644"/>
<path d="M212.465 96.3027C220.662 89.0726 230.813 94.5521 227.249 104.878C219.543 127.215 203.412 178.395 188.094 178.395C168.135 178.395 160.066 143.063 160.066 143.063L169.283 124.44C169.283 124.44 182.32 152.997 188.885 145.269C195.45 137.541 199.328 108.265 212.087 96.6371L212.465 96.3027Z" fill="#007AFF"/>
<path d="M204.353 63.1252C202.628 65.0608 200.917 67.0035 199.192 68.9462C197.874 70.6012 196.306 72.0416 194.545 73.2159C193.861 73.62 193.128 73.9356 192.364 74.1552C189.234 73.1661 187.645 70.1204 190.054 63.2319C190.81 61.0971 195.044 60.3 196.184 58.3146L195.949 58.1367C196.768 58.5235 197.633 58.8056 198.522 58.9764C200.376 59.254 204.938 57.8165 205.501 60.5562C205.7 61.5027 205.03 62.3922 204.353 63.1252Z" fill="url(#paint2_linear_3225_8645)"/>
<path d="M166.262 123.225C166.141 121.567 166.112 119.904 166.177 118.243C166.134 110.995 163.99 103.914 160.004 97.8555C159.584 98.4566 159.404 99.1924 159.498 99.9192L159.605 118.82C159.669 120.387 159.563 121.957 159.291 123.502C159.049 124.627 158.635 125.701 158.315 126.811C157.639 129.119 157.397 131.532 157.602 133.927C157.663 135.214 158.011 136.471 158.621 137.606C158.935 138.17 159.377 138.652 159.912 139.013C160.447 139.374 161.06 139.604 161.7 139.684C162.121 139.684 163.839 136.126 164.088 135.642C164.849 134.219 165.562 132.784 166.227 131.337C166.719 130.241 167.766 128.626 167.581 127.395C167.374 126.014 166.434 124.74 166.262 123.225Z" fill="url(#paint3_linear_3225_8645)"/>
<path d="M151.045 46.9375H138.445V154.237C138.445 155.921 138.113 157.588 137.468 159.143C136.823 160.699 135.878 162.112 134.686 163.302C133.494 164.493 132.079 165.437 130.522 166.081C128.965 166.726 127.296 167.057 125.611 167.057H29.2773V167.18C29.2773 168.863 29.6093 170.53 30.2543 172.086C30.8993 173.641 31.8447 175.054 33.0364 176.245C34.2282 177.435 35.6431 178.379 37.2002 179.024C38.7574 179.668 40.4263 180 42.1118 179.999H151.045C152.731 179.999 154.4 179.668 155.957 179.024C157.514 178.379 158.929 177.435 160.12 176.245C161.312 175.054 162.258 173.641 162.903 172.086C163.548 170.53 163.88 168.863 163.88 167.18V59.7572C163.88 56.3572 162.527 53.0965 160.12 50.6923C157.714 48.2881 154.449 46.9375 151.045 46.9375Z" fill="#F2F2F2"/>
<path d="M121.768 30.1523H12.8344C5.74617 30.1523 0 35.8919 0 42.972V150.395C0 157.475 5.74617 163.214 12.8344 163.214H121.768C128.856 163.214 134.602 157.475 134.602 150.395V42.972C134.602 35.8919 128.856 30.1523 121.768 30.1523Z" fill="#F2F2F2"/>
<path d="M12.8317 32.7969C11.4929 32.7969 10.1672 33.0603 8.93026 33.572C7.69335 34.0838 6.56946 34.8339 5.62277 35.7795C4.67607 36.7251 3.92511 37.8477 3.41276 39.0832C2.90041 40.3187 2.63672 41.6429 2.63672 42.9802V150.403C2.63672 153.104 3.71083 155.694 5.62277 157.604C7.5347 159.513 10.1278 160.586 12.8317 160.586H82.3557C88.8698 160.586 95.3201 159.305 101.338 156.815C107.357 154.325 112.825 150.675 117.431 146.074C122.037 141.473 125.691 136.011 128.184 130C130.677 123.988 131.96 117.546 131.96 111.039V42.9802C131.96 41.6429 131.696 40.3187 131.184 39.0832C130.672 37.8477 129.921 36.7251 128.974 35.7795C128.027 34.8339 126.903 34.0838 125.666 33.572C124.429 33.0603 123.104 32.7969 121.765 32.7969H12.8317Z" fill="white"/>
<path d="M97.7535 65.3978H36.6115C36.0505 65.3978 35.5124 65.1752 35.1157 64.7789C34.719 64.3827 34.4961 63.8452 34.4961 63.2848C34.4961 62.7244 34.719 62.187 35.1157 61.7907C35.5124 61.3945 36.0505 61.1719 36.6115 61.1719H97.7535C98.3145 61.1719 98.8526 61.3945 99.2493 61.7907C99.646 62.187 99.8689 62.7244 99.8689 63.2848C99.8689 63.8452 99.646 64.3827 99.2493 64.7789C98.8526 65.1752 98.3145 65.3978 97.7535 65.3978Z" fill="#F2F2F2"/>
<path d="M97.7535 110.449H36.6115C36.0505 110.449 35.5124 110.226 35.1157 109.83C34.719 109.433 34.4961 108.896 34.4961 108.336C34.4961 107.775 34.719 107.238 35.1157 106.842C35.5124 106.445 36.0505 106.223 36.6115 106.223H97.7535C98.3145 106.223 98.8526 106.445 99.2493 106.842C99.646 107.238 99.8689 107.775 99.8689 108.336C99.8689 108.896 99.646 109.433 99.2493 109.83C98.8526 110.226 98.3145 110.449 97.7535 110.449Z" fill="#F2F2F2"/>
<path d="M122.578 87.933H11.7795C11.2184 87.933 10.6804 87.7104 10.2836 87.3141C9.88693 86.9178 9.66406 86.3804 9.66406 85.82C9.66406 85.2596 9.88693 84.7222 10.2836 84.3259C10.6804 83.9296 11.2184 83.707 11.7795 83.707H122.578C123.139 83.707 123.677 83.9296 124.074 84.3259C124.471 84.7222 124.694 85.2596 124.694 85.82C124.694 86.3804 124.471 86.9178 124.074 87.3141C123.677 87.7104 123.139 87.933 122.578 87.933Z" fill="#F2F2F2"/>
<path d="M157.187 50.8488C156.95 50.994 156.746 51.1871 156.588 51.4157C156.43 51.6444 156.321 51.9035 156.27 52.1764C156.296 52.4625 156.414 52.7323 156.608 52.9453C156.801 53.1584 157.058 53.3032 157.34 53.358C157.909 53.4575 158.492 53.4303 159.049 53.2783L162.427 52.6145C160.602 53.6303 159.087 55.1216 158.045 56.9292C157.922 57.1374 157.862 57.3769 157.872 57.6185C157.883 57.86 157.964 58.0933 158.105 58.29C158.557 58.8608 159.321 58.6351 159.933 58.3962L162.865 57.2279L160.871 59.1596C160.25 59.7112 159.709 60.3455 159.262 61.0447C159.069 61.3739 158.926 61.7295 158.836 62.1002C158.8 62.2571 158.807 62.4206 158.854 62.5745C158.901 62.7284 158.988 62.8672 159.105 62.9773C159.223 63.0873 159.367 63.1647 159.524 63.2018C159.681 63.2389 159.845 63.2344 160 63.1888C161.22 62.8464 162.353 62.2491 163.324 61.4364C162.603 62.4454 161.801 63.3934 160.924 64.2708C160.047 65.1545 159.55 66.3456 159.541 67.5897C159.544 67.7235 159.589 67.8531 159.667 67.9615C159.766 68.0587 159.895 68.1196 160.033 68.1341C161.117 68.3133 162.101 67.5234 162.919 66.8065L165.931 64.0783C166.416 63.6815 166.843 63.219 167.201 62.7042C167.402 62.4077 167.515 62.0601 167.526 61.7019C167.506 61.4744 167.428 61.256 167.299 61.0677C167.17 60.8793 166.994 60.7274 166.789 60.6266C166.583 60.5259 166.356 60.4796 166.127 60.4924C165.899 60.5052 165.678 60.5765 165.485 60.6995C165.572 60.122 165.798 59.5844 165.937 59.0201C166.11 58.4641 166.072 57.8642 165.831 57.3341C165.701 57.0752 165.479 56.8746 165.208 56.7724C164.936 56.6702 164.637 56.6741 164.368 56.7832C164.722 56.0925 164.947 55.3436 165.033 54.5727C165.069 54.1832 164.997 53.7913 164.824 53.4401C164.652 53.0888 164.386 52.7917 164.056 52.5813C163.873 52.5101 163.706 52.4041 163.564 52.2693C163.298 51.9441 163.51 51.4794 163.623 51.0745C163.734 50.7688 163.766 50.44 163.716 50.1187C163.666 49.7974 163.536 49.4939 163.337 49.2364C163.138 48.9789 162.877 48.7756 162.578 48.6456C162.28 48.5155 161.953 48.4628 161.629 48.4924C159.887 48.6981 158.457 49.7735 157.187 50.8488Z" fill="url(#paint4_linear_3225_8645)"/>
<path d="M137.08 147.643H46.3792C44.2792 147.643 42.2651 146.809 40.7802 145.326C39.2952 143.843 38.4609 141.831 38.4609 139.733C38.4609 137.636 39.2952 135.624 40.7802 134.141C42.2651 132.658 44.2792 131.824 46.3792 131.824H137.08C139.18 131.824 141.194 132.658 142.679 134.141C144.164 135.624 144.998 137.636 144.998 139.733C144.998 141.831 144.164 143.843 142.679 145.326C141.194 146.809 139.18 147.643 137.08 147.643ZM46.3792 132.783C44.5337 132.783 42.7638 133.515 41.4588 134.819C40.1539 136.122 39.4207 137.89 39.4207 139.733C39.4207 141.577 40.1539 143.345 41.4588 144.648C42.7638 145.952 44.5337 146.684 46.3792 146.684H137.08C138.925 146.684 140.695 145.952 142 144.648C143.305 143.345 144.038 141.577 144.038 139.733C144.038 137.89 143.305 136.122 142 134.819C140.695 133.515 138.925 132.783 137.08 132.783H46.3792Z" fill="#007AFF"/>
<path d="M50.4112 143.66L50.5123 141.345L48.638 142.558L47.8938 141.391L49.9886 140.279L47.8938 139.177L48.638 138.01L50.5215 139.223L50.4112 136.898H51.9088L51.7986 139.213L53.6729 138.01L54.4171 139.167L52.3223 140.279L54.4171 141.391L53.6729 142.558L51.7986 141.354L51.9088 143.66H50.4112ZM59.3785 143.66L59.4795 141.345L57.6052 142.558L56.861 141.391L58.9558 140.279L56.861 139.177L57.6052 138.01L59.4887 139.223L59.3785 136.898H60.8761L60.7658 139.213L62.6401 138.01L63.3843 139.167L61.2895 140.279L63.3843 141.391L62.6401 142.558L60.7658 141.354L60.8761 143.66H59.3785ZM68.3457 143.66L68.4468 141.345L66.5725 142.558L65.8283 141.391L67.9231 140.279L65.8283 139.177L66.5725 138.01L68.456 139.223L68.3457 136.898H69.8433L69.7331 139.213L71.6074 138.01L72.3516 139.167L70.2568 140.279L72.3516 141.391L71.6074 142.558L69.7331 141.354L69.8433 143.66H68.3457ZM77.313 143.66L77.4141 141.345L75.5398 142.558L74.7956 141.391L76.8904 140.279L74.7956 139.177L75.5398 138.01L77.4233 139.223L77.313 136.898H78.8106L78.7004 139.213L80.5747 138.01L81.3189 139.167L79.2241 140.279L81.3189 141.391L80.5747 142.558L78.7004 141.354L78.8106 143.66H77.313ZM86.2803 143.66L86.3813 141.345L84.507 142.558L83.7628 141.391L85.8576 140.279L83.7628 139.177L84.507 138.01L86.3905 139.223L86.2803 136.898H87.7779L87.6676 139.213L89.5419 138.01L90.2861 139.167L88.1913 140.279L90.2861 141.391L89.5419 142.558L87.6676 141.354L87.7779 143.66H86.2803ZM95.2475 143.66L95.3486 141.345L93.4743 142.558L92.7301 141.391L94.8249 140.279L92.7301 139.177L93.4743 138.01L95.3578 139.223L95.2475 136.898H96.7451L96.6349 139.213L98.5092 138.01L99.2534 139.167L97.1586 140.279L99.2534 141.391L98.5092 142.558L96.6349 141.354L96.7451 143.66H95.2475ZM104.215 143.66L104.316 141.345L102.442 142.558L101.697 141.391L103.792 140.279L101.697 139.177L102.442 138.01L104.325 139.223L104.215 136.898H105.712L105.602 139.213L107.476 138.01L108.221 139.167L106.126 140.279L108.221 141.391L107.476 142.558L105.602 141.354L105.712 143.66H104.215ZM113.182 143.66L113.283 141.345L111.409 142.558L110.665 141.391L112.759 140.279L110.665 139.177L111.409 138.01L113.292 139.223L113.182 136.898H114.68L114.569 139.213L116.444 138.01L117.188 139.167L115.093 140.279L117.188 141.391L116.444 142.558L114.569 141.354L114.68 143.66H113.182ZM122.149 143.66L122.25 141.345L120.376 142.558L119.632 141.391L121.727 140.279L119.632 139.177L120.376 138.01L122.26 139.223L122.149 136.898H123.647L123.537 139.213L125.411 138.01L126.155 139.167L124.06 140.279L126.155 141.391L125.411 142.558L123.537 141.354L123.647 143.66H122.149ZM131.117 143.66L131.218 141.345L129.343 142.558L128.599 141.391L130.694 140.279L128.599 139.177L129.343 138.01L131.227 139.223L131.117 136.898H132.614L132.504 139.213L134.378 138.01L135.122 139.167L133.028 140.279L135.122 141.391L134.378 142.558L132.504 141.354L132.614 143.66H131.117Z" fill="black" fill-opacity="0.8"/>
<defs>
<linearGradient id="paint0_linear_3225_8645" x1="237.934" y1="57.6209" x2="171.793" y2="31.7854" gradientUnits="userSpaceOnUse">
<stop stop-color="#C4D3EC"/>
<stop offset="0.16" stop-color="#CBD8ED"/>
<stop offset="0.42" stop-color="#D1DCEF"/>
<stop offset="0.7" stop-color="#FBBC05"/>
</linearGradient>
<linearGradient id="paint1_linear_3225_8645" x1="191.115" y1="93.6401" x2="69.557" y2="322.758" gradientUnits="userSpaceOnUse">
<stop offset="0.02" stop-opacity="0"/>
<stop offset="0.32" stop-color="#161F18" stop-opacity="0.36"/>
<stop offset="0.76" stop-color="#324738" stop-opacity="0.82"/>
<stop offset="0.99" stop-color="#3D5644"/>
</linearGradient>
<linearGradient id="paint2_linear_3225_8645" x1="192.157" y1="68.9675" x2="164.746" y2="101.214" gradientUnits="userSpaceOnUse">
<stop stop-color="#C4D3EC"/>
<stop offset="0.42" stop-color="#D1DCEF"/>
<stop offset="1" stop-color="#FBBC05"/>
</linearGradient>
<linearGradient id="paint3_linear_3225_8645" x1="157.538" y1="118.798" x2="167.61" y2="118.798" gradientUnits="userSpaceOnUse">
<stop stop-color="#C4D3EC"/>
<stop offset="0.42" stop-color="#D1DCEF"/>
<stop offset="1" stop-color="#FBBC05"/>
</linearGradient>
<linearGradient id="paint4_linear_3225_8645" x1="156.27" y1="58.363" x2="167.526" y2="58.363" gradientUnits="userSpaceOnUse">
<stop stop-color="#C4D3EC"/>
<stop offset="0.42" stop-color="#D1DCEF"/>
<stop offset="1" stop-color="#FBBC05"/>
</linearGradient>
</defs>
</svg>
