<svg width="353" height="288" viewBox="0 0 353 288" fill="none" xmlns="http://www.w3.org/2000/svg">
<g clip-path="url(#clip0_3189_5454)">
<path opacity="0.18" d="M76.6575 61.53C55.7981 72.6539 34.3058 84.3036 19.7666 102.934C11.0353 114.135 5.21772 127.468 2.15429 141.341C-3.09317 165.022 0.791688 192.475 18.8437 208.76C25.1252 214.452 32.8079 218.471 40.7323 221.558C57.1583 227.946 74.8143 230.559 92.3902 229.204C106.823 228.08 121.232 224.283 135.592 226.092C153.108 228.292 168.401 238.519 184.718 245.253C204.994 253.588 227.072 256.594 248.843 253.984C254.332 253.318 259.888 252.252 264.715 249.561C270.446 246.362 274.693 241.138 279.211 236.362C289.398 225.554 301.414 216.624 314.706 209.981C321.679 206.498 329.067 203.608 335.121 198.707C351.066 185.827 353.797 162.779 352.869 142.34C351.941 121.901 347.327 99.3397 330.942 86.9278C327.284 84.1589 323.167 82.0123 319.62 79.0938C307.792 69.3592 304.255 53.0641 296.678 39.7453C279.69 9.96261 241.783 -3.07638 207.655 0.609079C158.752 5.89124 118.7 39.1134 76.6575 61.53Z" fill="#007AFF"/>
<path d="M282.469 24.3555H84.5586V253.186H282.469V24.3555Z" fill="#007AFF"/>
<path d="M282.469 24.3555H84.5586V253.186H282.469V24.3555Z" fill="url(#paint0_linear_3189_5454)"/>
<path d="M255.27 35.4167L84.5586 50.6939C85.3269 50.6939 84.5586 29.4688 84.5586 24.3555H264.547V26.15C264.547 28.6068 263.57 30.9631 261.83 32.7008C260.091 34.4385 257.731 35.4154 255.27 35.4167Z" fill="url(#paint1_linear_3189_5454)"/>
<path d="M282.469 50.6836H84.5586V279.515H282.469V50.6836Z" fill="#007AFF"/>
<path d="M112.695 50.6836H84.5586V279.515H112.695V50.6836Z" fill="url(#paint2_linear_3189_5454)"/>
<path d="M129.791 93.457H95.6055V127.586H129.791V93.457Z" fill="white"/>
<path d="M165.877 93.457H131.691V127.586H165.877V93.457Z" fill="white"/>
<path d="M201.967 93.457H167.781V127.586H201.967V93.457Z" fill="white"/>
<path d="M238.049 93.457H203.863V127.586H238.049V93.457Z" fill="white"/>
<path d="M129.791 129.086H95.6055V163.215H129.791V129.086Z" fill="white"/>
<path d="M165.877 129.086H131.691V163.215H165.877V129.086Z" fill="white"/>
<path d="M201.967 129.086H167.781V163.215H201.967V129.086Z" fill="white"/>
<path d="M238.049 129.086H203.863V163.215H238.049V129.086Z" fill="white"/>
<path d="M129.791 164.715H95.6055V198.844H129.791V164.715Z" fill="white"/>
<path d="M165.877 164.715H131.691V198.844H165.877V164.715Z" fill="white"/>
<path d="M201.967 164.715H167.781V198.844H201.967V164.715Z" fill="white"/>
<path d="M238.049 164.715H203.863V198.844H238.049V164.715Z" fill="white"/>
<path d="M129.791 200.344H95.6055V234.473H129.791V200.344Z" fill="white"/>
<path d="M165.877 200.344H131.691V234.473H165.877V200.344Z" fill="white"/>
<path d="M201.967 200.344H167.781V234.473H201.967V200.344Z" fill="white"/>
<path d="M238.049 200.344H203.863V234.473H238.049V200.344Z" fill="white"/>
<path d="M129.791 235.98H95.6055V270.11H129.791V235.98Z" fill="white"/>
<path d="M165.877 235.98H131.691V270.11H165.877V235.98Z" fill="white"/>
<path d="M201.967 235.98H167.781V270.11H201.967V235.98Z" fill="white"/>
<path d="M273.533 93.457H239.348V127.586H273.533V93.457Z" fill="white"/>
<path d="M273.533 57.8281H239.348V91.9572H273.533V57.8281Z" fill="white"/>
<path d="M238.049 57.8281H203.863V91.9572H238.049V57.8281Z" fill="white"/>
<path d="M273.533 129.086H239.348V163.215H273.533V129.086Z" fill="white"/>
<path d="M273.533 164.715H239.348V198.844H273.533V164.715Z" fill="white"/>
<path d="M273.533 200.344H239.348V234.473H273.533V200.344Z" fill="white"/>
<path d="M99.8906 15.098V33.6025C99.8906 34.601 101.161 35.4114 102.722 35.4114C104.288 35.4114 105.554 34.601 105.554 33.6025V15.098C105.554 14.0995 104.288 13.2891 102.722 13.2891C101.161 13.2891 99.8906 14.0995 99.8906 15.098ZM126.959 15.098V33.6025C126.959 34.601 128.225 35.4114 129.79 35.4114C131.356 35.4114 132.622 34.601 132.622 33.6025V15.098C132.622 14.0995 131.356 13.2891 129.79 13.2891C128.225 13.2891 126.959 14.0995 126.959 15.098ZM154.027 15.098V33.6025C154.027 34.601 155.293 35.4114 156.859 35.4114C158.424 35.4114 159.69 34.601 159.69 33.6025V15.098C159.69 14.0995 158.424 13.2891 156.859 13.2891C155.293 13.2891 154.027 14.0995 154.027 15.098ZM181.096 15.098V33.6025C181.096 34.601 182.362 35.4114 183.927 35.4114C185.488 35.4114 186.759 34.601 186.759 33.6025V15.098C186.759 14.0995 185.488 13.2891 183.927 13.2891C182.362 13.2891 181.096 14.0995 181.096 15.098ZM208.159 15.098V33.6025C208.159 34.601 209.43 35.4114 210.996 35.4114C212.556 35.4114 213.827 34.601 213.827 33.6025V15.098C213.827 14.0995 212.556 13.2891 210.996 13.2891C209.43 13.2891 208.159 14.0995 208.159 15.098ZM235.228 15.098V33.6025C235.228 34.601 236.498 35.4114 238.059 35.4114C239.625 35.4114 240.895 34.601 240.895 33.6025V15.098C240.895 14.0995 239.625 13.2891 238.059 13.2891C236.498 13.2891 235.228 14.0995 235.228 15.098ZM261.716 15.098V33.6025C261.716 34.601 262.987 35.4114 264.548 35.4114C266.113 35.4114 267.379 34.601 267.379 33.6025V15.098C267.379 14.0995 266.113 13.2891 264.548 13.2891C262.987 13.2891 261.716 14.0995 261.716 15.098Z" fill="#007AFF"/>
<path d="M286.976 24.3555H282.473V279.525H286.976V24.3555Z" fill="url(#paint3_linear_3189_5454)"/>
<path d="M211.757 62.8282C211.758 63.3658 211.599 63.8915 211.301 64.3389C211.002 64.7862 210.577 65.1351 210.08 65.3412C209.583 65.5474 209.035 65.6016 208.507 65.4969C207.979 65.3923 207.494 65.1335 207.113 64.7534C206.732 64.3733 206.473 63.889 206.368 63.3617C206.264 62.8344 206.318 62.288 206.524 61.7915C206.731 61.2951 207.08 60.8709 207.528 60.5729C207.977 60.2748 208.503 60.1162 209.042 60.1172C209.761 60.1185 210.451 60.4045 210.96 60.9126C211.469 61.4208 211.756 62.1096 211.757 62.8282Z" fill="url(#paint4_linear_3189_5454)"/>
<path d="M211.757 98.4649C211.758 99.0025 211.599 99.5282 211.301 99.9756C211.002 100.423 210.577 100.772 210.08 100.978C209.583 101.184 209.035 101.238 208.507 101.134C207.979 101.029 207.494 100.77 207.113 100.39C206.732 100.01 206.473 99.5257 206.368 98.9984C206.264 98.4711 206.318 97.9247 206.524 97.4282C206.731 96.9318 207.08 96.5077 207.528 96.2096C207.977 95.9115 208.503 95.753 209.042 95.7539C209.761 95.7552 210.451 96.0412 210.96 96.5494C211.469 97.0575 211.756 97.7463 211.757 98.4649Z" fill="url(#paint5_linear_3189_5454)"/>
<path d="M218.402 98.4649C218.403 99.0025 218.244 99.5282 217.945 99.9756C217.647 100.423 217.222 100.772 216.725 100.978C216.227 101.184 215.68 101.238 215.152 101.134C214.624 101.029 214.138 100.77 213.758 100.39C213.377 100.01 213.118 99.5257 213.013 98.9984C212.908 98.4711 212.962 97.9247 213.169 97.4282C213.375 96.9318 213.725 96.5077 214.173 96.2096C214.621 95.9115 215.148 95.753 215.686 95.7539C216.406 95.7552 217.096 96.0412 217.605 96.5494C218.114 97.0575 218.4 97.7463 218.402 98.4649Z" fill="url(#paint6_linear_3189_5454)"/>
<path d="M225.081 98.4649C225.082 99.0025 224.923 99.5282 224.625 99.9756C224.326 100.423 223.902 100.772 223.404 100.978C222.907 101.184 222.36 101.238 221.831 101.134C221.303 101.029 220.818 100.77 220.437 100.39C220.057 100.01 219.797 99.5257 219.693 98.9984C219.588 98.4711 219.642 97.9247 219.849 97.4282C220.055 96.9318 220.405 96.5077 220.853 96.2096C221.301 95.9115 221.827 95.753 222.366 95.7539C223.086 95.7552 223.776 96.0412 224.285 96.5494C224.794 97.0575 225.08 97.7463 225.081 98.4649Z" fill="url(#paint7_linear_3189_5454)"/>
<path d="M211.757 170.231C211.757 170.769 211.597 171.294 211.298 171.741C210.999 172.188 210.574 172.536 210.077 172.741C209.579 172.946 209.032 173 208.504 172.895C207.976 172.79 207.492 172.53 207.111 172.15C206.731 171.77 206.473 171.286 206.368 170.758C206.264 170.231 206.318 169.685 206.525 169.189C206.732 168.693 207.081 168.269 207.529 167.971C207.977 167.673 208.503 167.515 209.042 167.516C209.399 167.516 209.752 167.586 210.082 167.722C210.412 167.859 210.711 168.059 210.963 168.311C211.216 168.564 211.416 168.863 211.552 169.193C211.688 169.522 211.758 169.875 211.757 170.231Z" fill="url(#paint8_linear_3189_5454)"/>
<path d="M101.348 172.945C102.848 172.945 104.064 171.732 104.064 170.234C104.064 168.737 102.848 167.523 101.348 167.523C99.8486 167.523 98.6328 168.737 98.6328 170.234C98.6328 171.732 99.8486 172.945 101.348 172.945Z" fill="white"/>
<path d="M218.402 170.231C218.402 170.769 218.242 171.294 217.943 171.741C217.644 172.188 217.219 172.536 216.721 172.741C216.224 172.946 215.677 173 215.149 172.895C214.621 172.79 214.136 172.53 213.756 172.15C213.376 171.77 213.117 171.286 213.013 170.758C212.908 170.231 212.963 169.685 213.169 169.189C213.376 168.693 213.725 168.269 214.173 167.971C214.621 167.673 215.148 167.515 215.686 167.516C216.043 167.516 216.397 167.586 216.726 167.722C217.056 167.859 217.356 168.059 217.608 168.311C217.86 168.564 218.06 168.863 218.196 169.193C218.333 169.522 218.402 169.875 218.402 170.231Z" fill="url(#paint9_linear_3189_5454)"/>
<path d="M225.081 170.231C225.081 170.769 224.922 171.294 224.623 171.741C224.323 172.188 223.898 172.536 223.401 172.741C222.904 172.946 222.356 173 221.828 172.895C221.301 172.79 220.816 172.53 220.436 172.15C220.055 171.77 219.797 171.286 219.692 170.758C219.588 170.231 219.642 169.685 219.849 169.189C220.056 168.693 220.405 168.269 220.853 167.971C221.301 167.673 221.828 167.515 222.366 167.516C222.723 167.516 223.076 167.586 223.406 167.722C223.736 167.859 224.035 168.059 224.288 168.311C224.54 168.564 224.74 168.863 224.876 169.193C225.012 169.522 225.082 169.875 225.081 170.231Z" fill="url(#paint10_linear_3189_5454)"/>
<path d="M332.883 142.549C332.438 146.649 327.37 153.533 320.358 161.27C308.868 173.928 292.174 188.858 282.133 197.555C276.953 202.047 273.547 204.878 273.547 204.878V126.953C273.547 126.953 285.704 111.41 294.537 110.412C303.369 109.413 321.194 119.727 321.194 119.727C321.194 119.727 334.371 128.289 332.883 142.549Z" fill="#007AFF"/>
<path d="M332.555 97.302C331.796 100.399 332.811 104.692 331.371 107.533C328.955 112.309 321.891 115.478 320.847 120.722C320.784 121.026 312.923 124.808 308.869 123.515C306.747 122.844 305.67 120.78 307.303 116.11C307.815 114.663 310.685 114.123 311.459 112.777L311.299 112.656C307.376 109.699 306.95 103.433 307.762 99.2508C308.574 95.0685 310.434 91.0502 312.43 87.2297C313.966 84.2871 317.436 82.6904 320.76 82.7435C324.94 82.8158 329.351 84.4849 331.525 88.0498C333.188 90.7656 333.308 94.205 332.555 97.302Z" fill="url(#paint11_linear_3189_5454)"/>
<path d="M320.358 161.26C308.868 173.918 292.174 188.848 282.133 197.545C281.384 196.354 281.235 194.733 281.167 193.266C280.901 185.939 280.964 178.602 281.032 171.269C281.094 164.149 281.157 157.034 281.607 149.928C282.032 143.31 282.844 136.542 285.878 130.633C286.563 131.244 287.128 131.977 287.545 132.794C291.367 139.35 293.783 146.581 296.199 153.759C297.394 157.296 298.589 160.848 299.784 164.415C302.463 162.946 304.858 161.01 306.853 158.698C308.689 156.667 310.327 154.472 312.014 152.321C313.193 150.816 315.493 146.532 317.329 148.144C320.305 150.734 320.547 156.663 320.358 161.26Z" fill="url(#paint12_linear_3189_5454)"/>
<path d="M313.249 74.7662C311.109 75.895 308.833 77.2264 306.436 76.8646C306.375 77.4392 306.47 78.0196 306.709 78.5455C306.949 79.0714 307.325 79.5237 307.799 79.8554L306.311 80.1883C306.249 80.192 306.19 80.2095 306.136 80.2396C306.083 80.2697 306.037 80.3115 306.002 80.362C305.983 80.4158 305.977 80.473 305.983 80.5297C305.988 80.5863 306.006 80.641 306.035 80.69C306.402 81.5427 307.003 82.2738 307.77 82.798C307.504 83.3672 306.543 83.2418 306.214 83.7628C306.141 83.9175 306.104 84.0863 306.104 84.2573C306.104 84.4282 306.141 84.597 306.214 84.7517C306.545 85.6517 307.113 86.4464 307.857 87.0527C306.968 88.0175 307.524 89.8023 308.751 90.2413C309.978 90.6803 311.452 89.8457 311.872 88.606C311.927 89.1639 311.798 89.7245 311.505 90.2027C315.559 90.8395 319.893 91.4376 323.624 89.7203C323.449 90.106 323.354 90.5226 323.343 90.9456C324.243 91.2271 325.198 91.2867 326.126 91.1192C326.32 93.1062 326.141 95.1116 325.6 97.0333C325.266 98.2297 324.788 99.3874 324.575 100.608C324.307 101.837 324.527 103.122 325.189 104.192C325.832 104.134 326.286 103.531 326.532 102.938C326.709 102.319 326.978 101.731 327.33 101.192C328.296 100.063 330.306 100.478 331.084 101.727C331.862 102.976 331.567 104.655 330.823 105.914C330.363 106.657 329.755 107.297 329.037 107.795C328.319 108.293 327.506 108.638 326.648 108.808C326.788 110.154 326.933 111.5 327.073 112.841C329.62 110.429 332.471 108.36 334.761 105.721C337.051 103.082 338.786 99.7058 338.491 96.2229C338.313 94.0763 337.375 92.0358 337.303 89.8795C337.269 88.9147 337.414 87.9258 337.375 86.9514C337.285 85.3989 336.74 83.9071 335.808 82.6611C334.876 81.415 333.598 80.4697 332.132 79.9423C330.9 79.5226 329.543 79.402 328.451 78.6929C327.093 77.8149 326.387 76.1796 325.039 75.2824C323.59 74.3176 321.338 73.9221 319.652 73.4445C317.458 72.8367 315.177 73.758 313.249 74.7662Z" fill="#3D5644"/>
<path d="M282.854 120.414C282.682 120.519 282.534 120.659 282.419 120.826C282.304 120.992 282.225 121.18 282.188 121.378C282.207 121.586 282.293 121.782 282.433 121.937C282.573 122.092 282.76 122.197 282.965 122.237C283.379 122.309 283.803 122.29 284.207 122.179L286.662 121.697C285.336 122.435 284.235 123.519 283.478 124.832C283.388 124.984 283.345 125.158 283.352 125.333C283.36 125.509 283.419 125.678 283.521 125.821C283.85 126.236 284.405 126.072 284.85 125.898L286.981 125.049L285.531 126.453C285.08 126.854 284.687 127.315 284.362 127.823C284.222 128.062 284.118 128.321 284.053 128.59C284.027 128.704 284.031 128.823 284.066 128.935C284.1 129.047 284.163 129.148 284.248 129.228C284.334 129.307 284.439 129.364 284.553 129.391C284.667 129.418 284.786 129.414 284.898 129.381C285.785 129.132 286.608 128.698 287.314 128.108C286.79 128.841 286.207 129.53 285.57 130.168C284.932 130.81 284.572 131.675 284.565 132.579C284.567 132.677 284.599 132.771 284.657 132.85C284.728 132.92 284.822 132.965 284.922 132.975C285.71 133.105 286.425 132.531 287.019 132.01L289.208 130.028C289.561 129.739 289.872 129.403 290.131 129.029C290.278 128.814 290.36 128.561 290.368 128.301C290.353 128.135 290.296 127.977 290.203 127.84C290.109 127.703 289.981 127.592 289.832 127.519C289.683 127.446 289.517 127.412 289.351 127.422C289.185 127.431 289.025 127.483 288.885 127.572C288.947 127.153 289.112 126.762 289.213 126.352C289.339 125.948 289.311 125.512 289.136 125.127C289.042 124.938 288.88 124.793 288.683 124.718C288.486 124.644 288.268 124.647 288.073 124.726C288.33 124.224 288.493 123.68 288.556 123.12C288.582 122.837 288.53 122.552 288.404 122.297C288.279 122.041 288.086 121.826 287.846 121.673C287.713 121.621 287.591 121.544 287.488 121.446C287.295 121.21 287.449 120.872 287.532 120.578C287.612 120.355 287.636 120.117 287.599 119.883C287.563 119.649 287.468 119.429 287.323 119.242C287.179 119.055 286.989 118.907 286.772 118.812C286.555 118.718 286.318 118.68 286.082 118.701C284.816 118.851 283.777 119.632 282.854 120.414Z" fill="url(#paint13_linear_3189_5454)"/>
<path d="M322.492 138.53C328.049 133.629 334.929 137.344 332.513 144.343C327.29 159.485 316.356 194.179 305.972 194.179C292.442 194.179 286.973 170.228 286.973 170.228L293.22 157.604C293.22 157.604 302.058 176.962 306.508 171.724C310.958 166.485 313.587 146.639 322.236 138.757L322.492 138.53Z" fill="#007AFF"/>
<path d="M291.176 156.783C291.094 155.66 291.075 154.532 291.118 153.406C291.089 148.493 289.636 143.693 286.934 139.586C286.649 139.993 286.527 140.492 286.591 140.985L286.663 153.797C286.707 154.86 286.635 155.924 286.451 156.971C286.287 157.733 286.006 158.462 285.789 159.214C285.331 160.779 285.167 162.414 285.306 164.038C285.347 164.911 285.583 165.763 285.997 166.532C286.209 166.914 286.509 167.241 286.872 167.486C287.234 167.731 287.65 167.886 288.084 167.941C288.369 167.941 289.534 165.529 289.703 165.201C290.218 164.236 290.701 163.263 291.152 162.282C291.486 161.539 292.196 160.444 292.07 159.61C291.93 158.674 291.292 157.811 291.176 156.783Z" fill="url(#paint14_linear_3189_5454)"/>
<path d="M316.996 116.038C315.827 117.35 314.667 118.667 313.498 119.984C312.604 121.106 311.541 122.082 310.347 122.878C309.883 123.152 309.387 123.366 308.869 123.515C306.747 122.844 305.67 120.78 307.303 116.11C307.815 114.663 310.685 114.123 311.459 112.777L311.299 112.656C311.854 112.918 312.44 113.11 313.043 113.225C314.3 113.414 317.392 112.439 317.774 114.296C317.909 114.938 317.455 115.541 316.996 116.038Z" fill="url(#paint15_linear_3189_5454)"/>
<path d="M176.505 217.075L181.376 224.629C181.503 224.826 181.675 224.991 181.877 225.11C182.08 225.23 182.307 225.301 182.542 225.317C182.776 225.333 183.011 225.295 183.228 225.205C183.445 225.115 183.638 224.975 183.792 224.798L197.205 209.361C197.395 209.143 197.519 208.876 197.56 208.59C197.602 208.304 197.561 208.012 197.441 207.749C197.321 207.487 197.129 207.264 196.885 207.107C196.642 206.951 196.359 206.867 196.07 206.867H195.959C195.738 206.867 195.519 206.915 195.319 207.009C195.118 207.102 194.941 207.238 194.799 207.407L184.304 219.969C184.154 220.15 183.963 220.293 183.747 220.387C183.531 220.48 183.296 220.522 183.061 220.509C182.826 220.495 182.597 220.426 182.393 220.308C182.19 220.19 182.017 220.026 181.888 219.829L179.032 215.487C178.874 215.247 178.649 215.056 178.385 214.939C178.122 214.822 177.83 214.783 177.544 214.827C177.303 214.867 177.076 214.966 176.882 215.114C176.688 215.263 176.534 215.456 176.431 215.677C176.329 215.899 176.282 216.142 176.295 216.385C176.308 216.629 176.38 216.865 176.505 217.075ZM117.86 255.275L123.992 261.3C124.208 261.512 124.355 261.784 124.416 262.08C124.477 262.377 124.448 262.684 124.333 262.964C124.218 263.244 124.022 263.483 123.77 263.652C123.519 263.82 123.222 263.91 122.919 263.91H122.659C122.253 263.91 121.865 263.75 121.576 263.466L115.609 257.504C115.322 257.219 114.934 257.059 114.529 257.059C114.124 257.059 113.736 257.219 113.449 257.504L107.482 263.466C107.195 263.75 106.808 263.91 106.404 263.91H106.138C105.835 263.91 105.539 263.82 105.288 263.652C105.036 263.483 104.84 263.244 104.725 262.964C104.61 262.684 104.581 262.377 104.642 262.08C104.702 261.784 104.85 261.512 105.066 261.3L111.202 255.275C111.345 255.134 111.459 254.965 111.536 254.78C111.614 254.594 111.654 254.395 111.654 254.194C111.654 253.993 111.614 253.794 111.536 253.609C111.459 253.423 111.345 253.255 111.202 253.114L105.008 246.93C104.795 246.716 104.65 246.445 104.592 246.15C104.533 245.855 104.563 245.549 104.678 245.271C104.794 244.993 104.989 244.755 105.239 244.588C105.489 244.42 105.784 244.33 106.085 244.33C106.484 244.328 106.868 244.484 107.153 244.764L113.434 250.948C113.72 251.228 114.104 251.385 114.505 251.385C114.905 251.385 115.289 251.228 115.575 250.948L121.856 244.764C122.141 244.484 122.525 244.328 122.924 244.33C123.226 244.329 123.521 244.419 123.772 244.586C124.023 244.753 124.219 244.991 124.335 245.269C124.451 245.547 124.481 245.853 124.423 246.149C124.364 246.444 124.22 246.716 124.007 246.93L117.812 253.114C117.672 253.258 117.562 253.429 117.489 253.616C117.415 253.804 117.38 254.003 117.384 254.204C117.389 254.405 117.433 254.604 117.515 254.787C117.597 254.971 117.714 255.137 117.86 255.275Z" fill="#007AFF"/>
<path d="M63.1758 236.332H64.6737L65.4226 270.128L64.6737 264.561H63.1758V236.332Z" fill="#007AFF"/>
<path d="M66.1698 236.332H64.6719V264.561H66.1698V236.332Z" fill="#007AFF"/>
<path d="M52.4914 240.304C51.6458 242.914 54.3179 248.08 56.9078 250.753C59.4977 253.425 61.2565 252.812 63.8947 252.05C64.7403 249.44 65.4602 247.66 62.8655 244.988C60.2708 242.316 55.1296 239.542 52.4914 240.304Z" fill="#007AFF"/>
<path d="M77.0858 240.428C74.4718 239.579 69.2968 242.252 66.6199 244.837C63.943 247.423 64.5567 249.179 65.3201 251.813C67.9342 252.657 69.7172 253.376 72.3941 250.785C75.0709 248.195 77.8541 243.062 77.0858 240.428ZM64.6678 229.512H57.9805C57.9805 234.254 60.9714 238.098 64.663 238.098L66.2382 233.887L64.6678 229.512Z" fill="#007AFF"/>
<path d="M64.6666 229.511H71.3491C71.3491 234.253 68.3582 238.098 64.6666 238.098V229.511ZM52.007 219.839C51.1614 222.449 53.8335 227.62 56.4282 230.288C59.0229 232.955 60.7769 232.352 63.4103 231.585C64.2559 228.976 64.9759 227.196 62.3811 224.523C59.7864 221.851 54.6452 219.077 52.007 219.839Z" fill="#007AFF"/>
<path d="M76.6157 219.964C73.9968 219.12 68.8218 221.787 66.1498 224.378C63.4777 226.968 64.0817 228.719 64.8452 231.348C67.4592 232.192 69.247 232.911 71.9191 230.321C74.5911 227.73 77.3791 222.602 76.6157 219.964Z" fill="#007AFF"/>
<path d="M64.5511 211.641C62.0772 212.837 60.2024 218.336 60.0478 222.055C59.8932 225.775 61.8163 230.15 64.1936 231.525C66.6675 230.328 68.1992 226.083 68.3393 222.359C68.4795 218.635 66.9284 213.015 64.5511 211.641Z" fill="#007AFF"/>
<path d="M51.4531 260.253L53.8111 279.279H64.7167L69.1717 268.454L64.7167 259.723L51.4531 260.253Z" fill="#007AFF"/>
<path d="M77.9872 260.253L75.6292 279.279H64.7188V259.723L77.9872 260.253Z" fill="#007AFF"/>
<path d="M69.5809 259.852L69.4601 259.91L65.7589 261.743L64.749 262.255H50.0165C49.5718 262.255 49.1454 262.078 48.8309 261.765C48.5165 261.451 48.3398 261.025 48.3398 260.581V256.326C48.3398 255.882 48.5165 255.457 48.8309 255.143C49.1454 254.829 49.5718 254.652 50.0165 254.652H64.749L69.5809 259.852Z" fill="#007AFF"/>
<path d="M79.4327 262.258H64.7244V254.655H79.4327C79.8774 254.655 80.3039 254.832 80.6183 255.146C80.9327 255.46 81.1094 255.885 81.1094 256.329V260.584C81.1094 261.028 80.9327 261.454 80.6183 261.768C80.3039 262.081 79.8774 262.258 79.4327 262.258Z" fill="#007AFF"/>
<path d="M52.4914 240.304C51.6458 242.914 54.3179 248.08 56.9078 250.753C59.4977 253.425 61.2565 252.812 63.8947 252.05C64.7403 249.44 65.4602 247.66 62.8655 244.988C60.2708 242.316 55.1296 239.542 52.4914 240.304Z" fill="url(#paint16_linear_3189_5454)"/>
<path d="M77.091 240.43C74.477 239.581 69.302 242.253 66.6251 244.839C63.9483 247.425 64.5619 249.181 65.3253 251.814C67.9394 252.659 69.7224 253.377 72.3993 250.787C75.0761 248.197 77.8593 243.064 77.091 240.43Z" fill="url(#paint17_linear_3189_5454)"/>
<path d="M71.2626 230.917C70.7456 234.993 67.9914 238.105 64.6719 238.105V230.758C64.725 230.956 64.7878 231.153 64.8458 231.361C67.2376 232.133 68.9385 232.803 71.2626 230.917Z" fill="url(#paint18_linear_3189_5454)"/>
<path d="M52.007 219.839C51.1614 222.449 53.8335 227.62 56.4282 230.288C59.0229 232.955 60.7769 232.352 63.4103 231.585C64.2559 228.976 64.9759 227.196 62.3811 224.523C59.7864 221.851 54.6452 219.077 52.007 219.839Z" fill="url(#paint19_linear_3189_5454)"/>
<path d="M64.7173 262.258V279.281H53.8069L51.6953 262.258H64.7173Z" fill="url(#paint20_linear_3189_5454)"/>
<path d="M77.7398 262.258L75.6283 279.281H64.7227V262.258H77.7398Z" fill="url(#paint21_linear_3189_5454)"/>
<path d="M81.106 256.525V260.78C81.106 261.224 80.9294 261.65 80.6149 261.964C80.3005 262.278 79.874 262.454 79.4293 262.454H64.75V254.852H79.4535C79.894 254.858 80.3143 255.037 80.6235 255.35C80.9327 255.664 81.1061 256.086 81.106 256.525Z" fill="url(#paint22_linear_3189_5454)"/>
<path opacity="0.18" d="M55.0836 279.299L27.3677 284.606C26.9192 284.652 26.5076 284.875 26.2236 285.225C25.9395 285.574 25.8062 286.022 25.8529 286.47C25.8997 286.918 26.1227 287.329 26.473 287.613C26.8232 287.896 27.2719 288.029 27.7205 287.983H340.761C341.202 288.001 341.632 287.847 341.961 287.553C342.29 287.259 342.492 286.849 342.522 286.409C342.553 285.969 342.411 285.535 342.126 285.198C341.842 284.862 341.437 284.649 340.997 284.606L300.598 279.531H300.366L55.4363 279.29C55.3187 279.281 55.2005 279.284 55.0836 279.299Z" fill="#1D4127"/>
<path d="M71.918 230.328C71.6909 230.546 71.4734 230.743 71.2608 230.912C68.9367 232.798 67.2359 232.128 64.8441 231.356C64.7861 231.149 64.7233 230.951 64.6701 230.753C64.0033 228.442 63.6796 226.768 66.1487 224.385C68.8207 221.795 73.9957 219.127 76.6146 219.972C77.378 222.605 74.5949 227.743 71.918 230.328Z" fill="url(#paint23_linear_3189_5454)"/>
</g>
<defs>
<linearGradient id="paint0_linear_3189_5454" x1="196.084" y1="-33.4782" x2="186.914" y2="92.6399" gradientUnits="userSpaceOnUse">
<stop offset="0.01"/>
<stop offset="0.1" stop-opacity="0.77"/>
<stop offset="0.99" stop-opacity="0"/>
</linearGradient>
<linearGradient id="paint1_linear_3189_5454" x1="192.426" y1="132.666" x2="159.554" y2="-42.9383" gradientUnits="userSpaceOnUse">
<stop offset="0.01"/>
<stop offset="0.1" stop-opacity="0.77"/>
<stop offset="0.99" stop-opacity="0"/>
</linearGradient>
<linearGradient id="paint2_linear_3189_5454" x1="148.374" y1="164.952" x2="-127.567" y2="165.765" gradientUnits="userSpaceOnUse">
<stop offset="0.03" stop-opacity="0"/>
<stop offset="0.62" stop-color="#28382C" stop-opacity="0.66"/>
<stop offset="0.99" stop-color="#3D5644"/>
</linearGradient>
<linearGradient id="paint3_linear_3189_5454" x1="306.826" y1="151.644" x2="231.858" y2="152.645" gradientUnits="userSpaceOnUse">
<stop stop-color="#68A0FD"/>
<stop offset="0.01" stop-color="#679EF9"/>
<stop offset="0.12" stop-color="#4285F4"/>
<stop offset="0.24" stop-color="#5373A9"/>
<stop offset="0.37" stop-color="#34A853"/>
<stop offset="0.5" stop-color="#467352"/>
<stop offset="0.63" stop-color="#42634B"/>
<stop offset="0.79" stop-color="#405947"/>
<stop offset="0.99" stop-color="#3D5644"/>
</linearGradient>
<linearGradient id="paint4_linear_3189_5454" x1="208.887" y1="60.5513" x2="209.792" y2="74.3141" gradientUnits="userSpaceOnUse">
<stop stop-color="#18662D"/>
<stop offset="1" stop-color="#1A59C1"/>
</linearGradient>
<linearGradient id="paint5_linear_3189_5454" x1="208.887" y1="96.1881" x2="209.792" y2="109.956" gradientUnits="userSpaceOnUse">
<stop stop-color="#18662D"/>
<stop offset="1" stop-color="#1A59C1"/>
</linearGradient>
<linearGradient id="paint6_linear_3189_5454" x1="215.556" y1="96.1881" x2="216.456" y2="109.956" gradientUnits="userSpaceOnUse">
<stop stop-color="#18662D"/>
<stop offset="1" stop-color="#1A59C1"/>
</linearGradient>
<linearGradient id="paint7_linear_3189_5454" x1="222.216" y1="96.1881" x2="223.117" y2="109.956" gradientUnits="userSpaceOnUse">
<stop stop-color="#18662D"/>
<stop offset="1" stop-color="#1A59C1"/>
</linearGradient>
<linearGradient id="paint8_linear_3189_5454" x1="208.887" y1="167.95" x2="209.792" y2="181.717" gradientUnits="userSpaceOnUse">
<stop stop-color="#18662D"/>
<stop offset="1" stop-color="#1A59C1"/>
</linearGradient>
<linearGradient id="paint9_linear_3189_5454" x1="215.556" y1="167.95" x2="216.456" y2="181.717" gradientUnits="userSpaceOnUse">
<stop stop-color="#18662D"/>
<stop offset="1" stop-color="#1A59C1"/>
</linearGradient>
<linearGradient id="paint10_linear_3189_5454" x1="222.216" y1="167.95" x2="223.117" y2="181.717" gradientUnits="userSpaceOnUse">
<stop stop-color="#18662D"/>
<stop offset="1" stop-color="#1A59C1"/>
</linearGradient>
<linearGradient id="paint11_linear_3189_5454" x1="339.759" y1="112.309" x2="294.924" y2="94.7962" gradientUnits="userSpaceOnUse">
<stop stop-color="#C4D3EC"/>
<stop offset="0.16" stop-color="#CBD8ED"/>
<stop offset="0.42" stop-color="#D1DCEF"/>
<stop offset="0.7" stop-color="#FBBC05"/>
</linearGradient>
<linearGradient id="paint12_linear_3189_5454" x1="308.023" y1="136.725" x2="225.62" y2="292.038" gradientUnits="userSpaceOnUse">
<stop offset="0.02" stop-opacity="0"/>
<stop offset="0.32" stop-color="#161F18" stop-opacity="0.36"/>
<stop offset="0.76" stop-color="#324738" stop-opacity="0.82"/>
<stop offset="0.99" stop-color="#3D5644"/>
</linearGradient>
<linearGradient id="paint13_linear_3189_5454" x1="282.188" y1="125.874" x2="290.368" y2="125.874" gradientUnits="userSpaceOnUse">
<stop stop-color="#C4D3EC"/>
<stop offset="0.42" stop-color="#D1DCEF"/>
<stop offset="1" stop-color="#FBBC05"/>
</linearGradient>
<linearGradient id="paint14_linear_3189_5454" x1="285.262" y1="153.783" x2="292.09" y2="153.783" gradientUnits="userSpaceOnUse">
<stop stop-color="#C4D3EC"/>
<stop offset="0.42" stop-color="#D1DCEF"/>
<stop offset="1" stop-color="#FBBC05"/>
</linearGradient>
<linearGradient id="paint15_linear_3189_5454" x1="308.729" y1="119.998" x2="290.147" y2="141.857" gradientUnits="userSpaceOnUse">
<stop stop-color="#C4D3EC"/>
<stop offset="0.42" stop-color="#D1DCEF"/>
<stop offset="1" stop-color="#FBBC05"/>
</linearGradient>
<linearGradient id="paint16_linear_3189_5454" x1="62.7737" y1="236.126" x2="55.3434" y2="252.474" gradientUnits="userSpaceOnUse">
<stop offset="0.01"/>
<stop offset="0.1" stop-opacity="0.77"/>
<stop offset="0.99" stop-opacity="0"/>
</linearGradient>
<linearGradient id="paint17_linear_3189_5454" x1="80.5459" y1="247.483" x2="57.755" y2="244.555" gradientUnits="userSpaceOnUse">
<stop offset="0.01"/>
<stop offset="0.1" stop-opacity="0.77"/>
<stop offset="0.99" stop-opacity="0"/>
</linearGradient>
<linearGradient id="paint18_linear_3189_5454" x1="81.2067" y1="224.583" x2="52.7395" y2="242.426" gradientUnits="userSpaceOnUse">
<stop offset="0.01"/>
<stop offset="0.1" stop-opacity="0.77"/>
<stop offset="0.99" stop-opacity="0"/>
</linearGradient>
<linearGradient id="paint19_linear_3189_5454" x1="76.21" y1="204.253" x2="45.5811" y2="239.899" gradientUnits="userSpaceOnUse">
<stop offset="0.01"/>
<stop offset="0.1" stop-opacity="0.77"/>
<stop offset="0.99" stop-opacity="0"/>
</linearGradient>
<linearGradient id="paint20_linear_3189_5454" x1="45.4863" y1="266.942" x2="77.321" y2="275.816" gradientUnits="userSpaceOnUse">
<stop offset="0.01"/>
<stop offset="0.1" stop-opacity="0.77"/>
<stop offset="0.99" stop-opacity="0"/>
</linearGradient>
<linearGradient id="paint21_linear_3189_5454" x1="68.7428" y1="258.862" x2="78.2989" y2="304.743" gradientUnits="userSpaceOnUse">
<stop offset="0.01"/>
<stop offset="0.1" stop-opacity="0.77"/>
<stop offset="0.99" stop-opacity="0"/>
</linearGradient>
<linearGradient id="paint22_linear_3189_5454" x1="73.0319" y1="248.899" x2="72.7381" y2="271.808" gradientUnits="userSpaceOnUse">
<stop offset="0.01"/>
<stop offset="0.1" stop-opacity="0.77"/>
<stop offset="0.99" stop-opacity="0"/>
</linearGradient>
<linearGradient id="paint23_linear_3189_5454" x1="60.6016" y1="214.482" x2="84.0804" y2="240.488" gradientUnits="userSpaceOnUse">
<stop offset="0.01"/>
<stop offset="0.1" stop-opacity="0.77"/>
<stop offset="0.99" stop-opacity="0"/>
</linearGradient>
<clipPath id="clip0_3189_5454">
<rect width="353" height="288" fill="white"/>
</clipPath>
</defs>
</svg>
