<svg width="353" height="353" viewBox="0 0 353 353" fill="none" xmlns="http://www.w3.org/2000/svg">
<path d="M122.052 301.287C111.592 304.177 100.692 305.072 89.8678 305.838C74.493 306.921 59.1113 307.775 43.7088 308.389C38.276 308.609 32.7742 308.788 27.4447 307.7C24.7696 290.787 23.3149 273.323 23.1701 255.852C23.1012 247.627 23.3356 239.292 25.6315 231.398C27.9273 223.503 32.5053 215.988 39.5032 211.665C46.6598 207.239 55.4434 206.57 63.8478 206.129C85.6276 204.992 107.904 204.667 130.083 211.81C130.684 221.049 132 230.24 134.021 239.271C123.788 237.623 113.351 237.306 104.043 238.836C104.229 254.625 105.036 270.399 106.456 286.12C106.649 288.256 106.877 290.47 107.911 292.352C109.083 294.489 111.158 295.958 113.24 297.219C116.17 299.005 119.259 300.522 122.052 301.287Z" fill="#007AFF"/>
<path d="M105.39 166.571C105.156 174.942 104.094 183.36 101.26 191.24C100.509 193.336 99.5573 195.488 97.7784 196.818C96.8339 197.528 95.6963 197.962 94.545 198.252C92.1939 198.859 89.705 198.921 87.3195 198.438C86.9333 200.686 86.3404 202.954 85.6028 205.208C85.196 206.457 84.7547 207.704 84.279 208.931C83.8722 209.973 83.4033 211.069 82.4795 211.697C81.8452 212.124 81.0731 212.275 80.3146 212.331C76.3228 212.627 72.5721 210.428 69.5109 207.863C68.001 206.602 66.567 205.215 65.6293 203.492C64.7123 201.803 64.3331 199.879 64.0712 197.977C63.4506 193.523 63.4506 189.007 63.4576 184.511C63.4576 179.927 62.12 175.762 63.1128 171.605C64.0987 167.454 65.8775 163.531 67.8286 159.733C69.9452 155.624 72.3997 151.486 76.2056 148.86C79.1012 146.86 82.583 145.888 86.0371 145.261C88.2296 144.854 90.5117 144.585 92.6628 145.191C95.4757 145.984 97.6475 148.178 99.5986 150.356C101.453 152.424 103.26 154.609 104.273 157.196C105.431 160.146 105.48 163.4 105.39 166.571Z" fill="#FFC5A6"/>
<path d="M87.3068 198.448C86.9208 200.695 86.3278 202.964 85.5901 205.218C80.1228 201.715 78.5508 194.098 78.5508 194.098C83.7493 197.821 87.3068 198.448 87.3068 198.448Z" fill="#FF9F6B"/>
<path d="M62.6693 193.302C69.7775 189.613 75.2381 182.877 77.3961 175.479C75.4793 175.17 73.7419 173.873 72.9077 172.122C72.0734 170.371 72.1493 168.206 73.1214 166.517C73.5558 165.765 74.1832 165.082 75.0037 164.8C76.2998 164.352 77.7752 165.021 78.6509 166.068C79.5264 167.117 79.9402 168.475 80.278 169.805C80.8847 172.205 81.3397 174.645 81.6224 177.107C81.7809 178.465 81.9464 179.947 82.9255 180.899C84.3732 177.934 85.1662 174.68 86.614 171.715C88.055 168.751 90.3785 165.945 93.5707 165.111C95.832 164.517 98.2176 164.986 100.555 164.93C105.546 164.821 110.324 162.263 113.599 158.492C116.874 154.721 118.708 149.839 118.818 145.054C115.144 146.826 110.717 146.103 106.967 144.509C103.209 142.916 99.8447 140.517 96.1285 138.843C92.24 137.091 87.9929 136.147 83.7321 136.085C81.5258 136.056 79.292 136.263 77.2237 137.042C75.1554 137.815 73.2662 139.193 72.1424 141.435C69.5845 140.311 66.6543 139.393 64.0413 140.379C62.8417 140.828 61.8213 141.648 60.918 142.559C56.7676 146.778 55.175 152.9 54.6785 158.795C53.6375 170.861 56.5814 183.229 62.6693 193.302Z" fill="#203752"/>
<path d="M72.9755 278.511C75.2646 260.129 78.0361 241.81 81.2835 223.574C79.4081 220.954 77.4501 218.272 75.0783 215.914C75.5955 214.356 76.1194 212.784 76.9606 211.371C77.8017 209.958 78.9876 208.695 80.5112 208.068C82.0143 207.448 83.7034 207.496 85.3305 207.552C86.4336 207.586 87.6402 207.668 87.9367 208.454C88.6813 210.757 89.4259 213.06 89.9499 214.915C89.2949 217.776 88.2952 220.561 87.2817 223.016C88.0264 243.597 88.7847 264.314 93.2937 284.412C93.4386 285.039 93.5765 285.728 93.3144 286.314C93.1352 286.714 92.7905 287.018 92.4319 287.28C89.8534 289.128 86.2958 289.169 83.3173 288.066C80.339 286.963 77.8431 284.86 75.5748 282.64C74.12 281.233 72.8653 279.379 72.9755 278.511ZM297.028 318.967C311.279 291.036 325.813 261.26 321.835 243.851C320.538 238.177 316.547 233.413 312.209 229.538C307.218 225.084 301.123 221.864 294.629 220.257C289.754 219.051 284.611 218.714 280.039 216.631C277.392 215.425 275.028 213.667 272.393 212.44C269.251 210.971 265.789 210.295 262.597 208.93C257.302 206.675 252.973 202.656 248.939 198.554C242.926 192.439 237.288 185.95 232.171 178.828C229.944 182.29 226.896 185.13 224.429 188.419C221.96 191.707 220.029 195.74 220.602 199.808C221.003 202.663 222.587 205.193 224.181 207.592C230.669 217.362 237.976 226.587 245.74 234.847C235.95 258.171 228.055 282.288 222.333 308.28C224.381 309.335 252.489 318.967 297.028 318.967Z" fill="#1B81A6"/>
<path d="M320.157 171.794C320.26 176.786 317.971 181.557 314.972 185.55C311.966 189.534 308.243 192.926 304.906 196.636C301.562 200.359 298.535 204.543 297.349 209.397C296.363 210.99 295.516 212.92 294.661 214.844C293.399 217.713 292.02 220.732 289.428 222.497C287.373 223.903 284.787 224.331 282.291 224.372C279.362 224.414 276.335 223.931 273.866 222.359C271.399 220.78 269.599 217.954 269.833 215.037C269.929 213.768 270.392 212.569 270.888 211.397C270.958 211.239 271.026 211.08 271.095 210.921C272.743 207.094 274.404 203.275 276.053 199.448C273.639 198.339 271.474 197.222 269.902 195.443C267.751 192.988 267.035 189.521 267.31 186.259C267.6 183.006 268.779 179.896 270.04 176.883C273.425 168.789 277.486 160.97 282.147 153.531C288.676 154.655 293.944 156.109 299.225 157.558C303.63 158.771 308.057 159.991 312.262 161.777C314.799 162.86 317.378 164.259 318.806 166.61C319.756 168.161 320.122 169.995 320.157 171.794Z" fill="#FFC5A6"/>
<path d="M287.476 202.641C283.892 204.764 280.306 206.874 276.721 208.997C274.901 210.073 272.998 211.175 270.902 211.418C270.971 211.259 271.04 211.1 271.108 210.941C272.757 207.115 274.418 203.295 276.066 199.469C278.568 200.641 282.884 202.041 287.476 202.641Z" fill="#FF9F6B"/>
<path d="M297.142 209.925C296.233 208.773 295.667 207.387 295.22 205.988C293.46 200.479 293.371 194.446 294.964 188.89C297.949 189.379 301.542 188.531 303.679 186.118C305.815 183.706 306.133 179.74 304.093 177.244C303.734 176.81 303.313 176.417 302.823 176.142C301.417 175.342 299.659 175.563 298.115 176.038C295.136 176.962 292.44 178.789 290.475 181.216C291.854 177.893 292.061 174.052 290.82 170.722C288.138 163.532 279.624 159.739 277.121 152.486C275.163 146.805 277.534 140.387 282.568 135.547C283.492 138.318 285.67 140.538 288.152 142.082C290.634 143.627 293.433 144.585 296.199 145.523C299.39 146.605 302.582 147.688 305.774 148.77C308.457 149.68 311.18 150.612 313.49 152.252C315.799 153.893 317.675 156.368 317.813 159.25C323.321 159.037 328.23 163.71 329.464 169.089C330.698 174.466 328.83 180.176 325.693 184.704C322.556 189.242 318.24 192.806 313.979 196.308C308.436 200.872 302.9 205.429 297.142 209.925ZM235.746 297.12C237.395 300.829 238.787 304.649 239.91 308.551C241.6 308.433 243.088 307.427 244.475 306.455C247.288 304.49 250.107 302.532 252.921 300.567C257.995 278.298 263.821 255.297 269.874 232.36C270.012 231.836 270.149 231.311 270.412 230.836C270.812 230.105 271.46 229.546 272.087 229.001C274.542 226.906 276.996 224.81 279.451 222.714C279.43 219.874 279.451 217.275 279.471 214.682C278.099 213.938 276.555 213.386 274.983 212.896C274.211 212.655 273.425 212.428 272.618 212.407C271.212 212.38 269.847 213 268.736 213.868C267.627 214.737 266.737 215.847 265.855 216.95C265.586 220.625 265.358 224.258 265.22 227.788C254.237 249.795 244.226 272.286 235.746 297.12Z" fill="#203752"/>
<path d="M296.911 209.948C296.325 213.617 296.214 217.367 296.587 221.063C288.361 222.635 280.488 225.992 273.655 230.832C273.973 225.247 273.821 219.747 273.339 214.272C269.746 218.346 266.575 222.78 263.879 227.489C263.093 223.724 263.176 219.952 263.783 216.278C266.954 212.494 270.091 208.928 273.304 205.434C273.724 207.667 274.048 209.632 274.18 211.79C281.749 210.136 289.554 209.598 296.911 209.948Z" fill="#1B81A6"/>
<path d="M218.262 236.351C212.208 234.504 205.389 235.352 199.977 238.627C194.565 241.894 190.642 247.541 189.456 253.753C188.946 256.443 188.953 259.344 190.215 261.779C191.469 264.192 193.813 265.874 196.296 266.99C199.591 268.473 203.266 269.121 206.879 268.839C210.609 268.549 215.289 267.708 217.276 270.879C218.082 272.162 218.124 273.768 218.13 275.285C218.137 283.275 217.647 291.259 216.655 299.189C216.448 300.843 216.111 302.69 214.745 303.662C213.849 304.298 212.697 304.414 211.602 304.491C201.576 305.2 191.476 304.793 181.541 303.276C180.817 303.167 180.073 303.035 179.487 302.608C178.121 301.595 178.287 299.568 178.376 297.872C178.749 290.943 175.191 283.861 169.248 280.27C163.305 276.678 155.211 276.885 149.62 281.001C143.821 285.269 141.366 292.604 137.485 298.671C127.481 298.354 117.656 297.996 107.832 297.637C106.487 297.588 105.067 297.513 103.964 296.748C102.357 295.638 101.957 293.472 101.723 291.536C100.434 280.856 100.261 270.045 101.199 259.331C107.108 260.359 112.616 260.282 117.677 258.607C122.737 256.932 127.323 253.567 129.997 248.954C131.114 247.032 131.9 244.831 131.693 242.625C131.555 241.13 130.969 239.709 130.239 238.393C127.798 233.98 123.627 230.56 118.821 229.023C114.016 227.485 108.638 227.858 104.088 230.036C103.261 223.941 103.157 217.516 103.516 211.111C104.019 202.148 103.791 198.797 108.507 198.797C121.889 198.797 135.265 197.977 148.599 198.618C147.047 195.025 146.565 190.972 147.233 187.118C147.578 185.111 148.255 183.119 149.488 181.506C151.956 178.293 156.238 177.052 160.278 176.727C164.249 176.411 168.338 176.797 172.006 178.354C175.673 179.914 178.901 182.706 180.514 186.345C182.176 190.082 182.058 194.343 181.776 198.418C190.186 198.17 198.591 197.777 207.064 197.405C212.587 209.635 216.248 222.701 218.262 236.351Z" fill="#203752"/>
<path d="M232.167 59.17C224.528 51.6482 216.323 44.6984 207.643 38.4106C204.699 36.2732 201.465 34.1359 197.832 34.0464C192.874 33.9153 188.69 37.5694 185.305 41.1959C180.644 46.1876 176.411 51.5792 172.668 57.2947C171.957 58.3702 171.247 59.5562 171.301 60.8455C171.385 62.6725 172.964 64.0307 174.433 65.12C177.963 67.7399 181.713 70.2357 184.264 73.814C189.083 80.5776 188.324 90.747 182.547 96.7107C176.769 102.675 166.635 103.778 159.72 99.179C156.583 97.09 153.549 93.8495 149.819 94.3805C147.62 94.6906 145.855 96.2832 144.262 97.8276C136.595 105.267 129.529 113.327 123.164 121.904C122.027 123.434 120.854 125.199 121.11 127.088C121.324 128.66 122.475 129.915 123.571 131.06C132.279 140.133 141.152 149.047 150.184 157.81C152.17 159.734 154.921 161.802 157.424 160.63C158.941 159.92 159.712 158.272 160.547 156.824C164.29 150.364 171.737 146.158 179.19 146.572C186.643 146.986 193.689 152.143 196.074 159.217C198.46 166.29 195.854 174.819 189.766 179.135C188.414 180.094 186.711 181.266 186.959 182.899C187.084 183.713 187.683 184.354 188.256 184.94C197.598 194.482 207.78 203.21 218.654 210.974C219.419 211.526 220.343 212.098 221.246 211.822C221.818 211.649 222.232 211.174 222.618 210.726C231.374 200.432 240.131 190.139 248.886 179.845C251.312 176.991 253.871 173.047 251.982 169.807C251.058 168.235 249.32 167.373 247.741 166.456C241.467 162.815 236.393 156.811 234.773 149.737C233.153 142.663 235.366 134.624 240.971 130.025C247.68 124.523 258.056 124.944 265.254 129.784C267.66 131.404 269.907 133.5 272.755 134.059C275.602 134.617 288.77 117.884 293.611 111.644C294.873 110.017 296.196 108.025 295.583 106.06C295.039 104.309 293.197 103.378 291.55 102.571C281.91 97.869 273.217 91.2572 266.116 83.2181C271.556 80.6948 275.079 74.7999 275.347 68.8085C275.617 62.8172 274.403 54.0543 267.281 47.8216C260.855 42.2026 242.578 37.6591 232.167 59.17Z" fill="#007AFF"/>
<path d="M133.085 287.675C136.373 287.357 139.627 286.585 142.703 285.378C143.861 284.924 145.061 284.399 146.294 284.531C147.811 284.689 149.1 285.862 149.714 287.261C150.328 288.66 150.356 290.253 150.142 291.763C149.618 295.521 147.618 299.051 144.668 301.429C141.717 303.807 137.842 305.014 134.064 304.725C132.12 304.573 130.037 303.925 128.962 302.305C127.583 300.236 128.313 297.465 129.155 295.121C130.106 292.438 131.306 289.591 133.085 287.675ZM216.047 185.125C214.819 177.238 212.827 169.467 210.117 161.96C209.773 161.015 209.38 160.015 208.565 159.436C207.242 158.491 205.284 159.07 204.181 160.263C203.077 161.456 202.616 163.097 202.189 164.662C200.61 161.215 195.226 160.594 192.639 163.366C191.412 164.683 190.819 166.455 190.254 168.172C189.116 171.646 188.007 175.562 189.668 178.817C191.95 183.291 198.224 184.139 201.285 188.124C202.154 189.255 202.768 190.641 203.96 191.42C205.277 192.281 207.049 192.178 208.49 191.537C209.932 190.895 211.104 189.793 212.206 188.669C213.544 187.317 214.839 185.925 216.047 185.125Z" fill="#FFC5A6"/>
<path d="M61.9483 232.373C73.993 244.494 80.4464 261.165 91.8706 273.872C93.8631 276.092 96.0763 278.229 98.841 279.352C100.247 279.926 101.751 280.215 103.247 280.476C113.954 282.338 124.889 282.897 135.596 281.648C136.651 284.096 137.437 285.778 138.009 288.247C138.216 289.156 138.554 290.171 138.691 291.094C138.891 292.473 139.002 293.99 139.009 295.382C139.022 297.858 139.036 300.54 138.609 302.987C138.374 304.325 138.243 305.772 137.961 307.062C137.843 307.607 137.664 307.793 137.237 308.048C135.665 308.993 133.568 309.323 131.858 309.972C129.577 310.833 127.081 310.881 124.668 311.012C122.503 311.13 120.331 311.274 118.173 311.308C117.194 311.323 116.291 311.585 115.312 311.619C114.168 311.653 112.995 311.688 111.851 311.619C108.859 311.453 105.853 311.054 102.902 310.544C101.868 310.365 100.82 310.351 99.7786 310.206C98.5031 310.033 97.2001 309.709 95.9314 309.468C93.084 308.923 90.2021 308.11 87.4512 307.199C84.3831 306.186 81.6529 304.593 78.7158 303.305C76.1579 302.181 73.5587 300.918 71.4076 299.126C68.243 296.486 65.6575 293.349 62.8998 290.301C60.6384 287.799 58.4735 285.206 56.1776 282.738C53.3025 279.642 51.2756 275.815 49.0072 272.292C48.1317 270.935 47.1595 269.763 46.4425 268.307C45.5049 266.419 44.1604 264.426 43.8778 262.296C43.0366 256.022 45.2084 250.23 48.2419 244.88C50.207 241.419 51.8891 237.855 54.6332 234.918C56.6602 232.746 59.2249 230.518 62.1207 229.629C61.8311 229.725 61.5553 229.829 61.9483 232.373Z" fill="#007AFF"/>
<path d="M292.926 280.562C279.578 282.368 266.113 283.733 252.648 283.285C247.739 283.12 242.775 282.706 238.162 281.03C231.379 278.576 225.759 273.522 221.581 267.641C217.404 261.76 214.549 255.052 212.018 248.295C205.242 230.19 200.567 211.299 198.112 192.119C198.002 191.271 197.919 190.34 198.402 189.636C198.753 189.12 199.347 188.83 199.918 188.561C206.199 185.624 212.646 183.046 219.12 180.859C226.779 198.338 230.745 217.883 242.7 232.748C245.36 236.057 248.436 239.118 252.152 241.187C257.95 244.421 264.872 244.999 271.504 244.579C278.13 244.158 284.68 242.807 291.305 242.463C294.236 242.311 297.566 242.525 299.483 244.751C300.655 246.116 301.041 247.985 301.261 249.778C302.661 261.112 299.042 272.971 292.926 280.562Z" fill="#1B81A6"/>
<path d="M87.5861 200.247C90.0957 201.648 91.5436 203.599 92.9226 206.114C92.6191 210.671 91.8883 215.464 90.5922 220.104C88.641 215.85 86.0625 211.886 82.96 208.383C79.2506 211.768 76.6308 216.118 74.983 220.814C69.357 216.105 64.0896 211.493 58.8359 206.873C60.1804 203.536 62.0212 199.027 63.8965 196.766C66.9439 199.013 74.2866 205.521 83.1599 206.921C85.1041 205.212 86.4348 202.668 87.5861 200.247Z" fill="#007AFF"/>
<path d="M59.892 208.139C65.1525 211.794 70.0477 215.93 74.5429 220.494C74.8394 220.798 75.4254 220.742 75.6253 220.342C77.7144 216.151 80.2791 212.228 83.2921 208.643C82.9681 208.643 82.644 208.65 82.3199 208.65C85.6706 211.553 88.2286 215.262 89.6833 219.447C89.9109 220.108 90.7795 220.115 91.014 219.453C92.51 215.233 93.4339 210.856 93.8132 206.402C93.8889 205.513 92.51 205.513 92.4342 206.395C92.0687 210.731 91.138 214.992 89.6833 219.102C90.1245 219.102 90.5727 219.102 91.014 219.108C89.4696 214.69 86.8221 210.738 83.2782 207.671C83.0163 207.443 82.5543 207.374 82.3062 207.678C79.2174 211.353 76.5699 215.365 74.4257 219.66C74.7842 219.612 75.1496 219.563 75.5081 219.508C70.9371 214.861 65.9317 210.656 60.5746 206.933C59.8437 206.429 59.1681 207.63 59.892 208.139Z" fill="#203752"/>
<path d="M76.5574 218.578C77.5848 220.054 78.6189 221.53 79.6462 223.005C80.1151 223.681 80.4529 224.122 81.3354 224.094C82.2386 224.066 83.1349 224.011 84.0381 223.977C84.8999 223.936 85.7616 223.929 86.6234 223.859C87.4852 223.797 87.8025 223.343 88.0851 222.57C88.7194 220.84 89.3261 219.102 89.9466 217.365C90.2431 216.531 88.9124 216.179 88.616 217.006C88.1196 218.4 87.6163 219.799 87.1199 221.192C86.9957 221.53 86.8923 221.881 86.7545 222.212C86.6027 222.57 86.4166 222.487 86.0443 222.501C85.2997 222.536 84.5551 222.57 83.8105 222.598C83.1072 222.632 82.3971 222.66 81.6939 222.694C81.5698 222.702 81.3422 222.757 81.225 222.716C81.0526 222.66 81.0113 222.557 80.901 222.405C80.701 222.116 80.5011 221.826 80.2943 221.537C79.4462 220.315 78.5914 219.102 77.7432 217.882C77.2469 217.165 76.0472 217.848 76.5574 218.578Z" fill="#203752"/>
<path d="M80.0706 224.298C78.8089 233.227 77.5471 242.162 76.2855 251.091C76.1614 251.959 77.4921 252.324 77.6161 251.449C78.8778 242.52 80.1396 233.586 81.4012 224.657C81.5253 223.788 80.1946 223.416 80.0706 224.298ZM86.6208 223.505C86.9034 236.046 87.6825 248.581 88.9787 261.06C89.344 264.563 89.744 268.064 90.1852 271.56C90.2955 272.443 91.6262 272.084 91.5228 271.215C89.9714 258.882 88.9166 246.491 88.3581 234.075C88.1996 230.558 88.0824 227.042 88.0065 223.519C87.979 222.63 86.6 222.623 86.6208 223.505ZM102.733 233.579C103.843 243.32 104.187 253.138 103.767 262.935C103.732 263.825 105.111 263.825 105.146 262.942C105.566 253.145 105.215 243.327 104.111 233.586C104.015 232.71 102.629 232.696 102.733 233.579Z" fill="#203752"/>
<path d="M42.4016 221.355C59.3278 224.788 68.7871 241.184 77.5362 254.455C80.0872 258.33 82.6451 262.205 85.1961 266.08C87.4091 269.437 89.5189 273.002 92.4008 275.835C97.9164 281.247 105.797 282.247 113.16 282.695C122.399 283.26 132.162 283.889 140.924 280.323C141.737 279.993 141.4 278.655 140.58 278.987C132.707 282.185 124.082 281.902 115.753 281.461C108.396 281.068 100.067 280.744 94.221 275.642C91.1322 272.947 88.9949 269.347 86.768 265.962C84.217 262.087 81.6591 258.212 79.1081 254.338C74.4267 247.229 69.9315 239.866 64.2367 233.502C58.5349 227.125 51.2818 221.748 42.7602 220.017C41.8914 219.845 41.5329 221.176 42.4016 221.355ZM42.5257 265.514C50.4061 275 58.3072 284.522 67.1736 293.119C71.4965 297.311 76.0194 301.455 81.0248 304.819C85.9268 308.115 91.3872 310.176 97.2131 311.134C103.853 312.224 110.602 312.086 117.304 311.913C118.194 311.893 118.201 310.514 117.311 310.535C105.604 310.838 93.4143 310.934 83.1207 304.537C78.067 301.4 73.5786 297.325 69.2833 293.236C64.9122 289.079 60.7755 284.68 56.7698 280.171C52.2332 275.055 47.8621 269.796 43.4909 264.535C42.9324 263.852 41.9672 264.831 42.5257 265.514ZM222.322 190.729C224.142 198.561 226.699 206.207 229.96 213.557C232.897 220.17 236.29 226.733 240.833 232.4C245.163 237.798 250.706 242.136 257.442 244.01C264.778 246.059 272.596 245.362 279.974 243.935C289.095 242.17 298.044 239.253 307.393 238.992C308.282 238.963 308.289 237.584 307.399 237.613C291.839 238.047 276.857 246.037 261.144 243.417C254.126 242.252 248.189 238.633 243.466 233.386C238.751 228.146 235.331 221.824 232.339 215.481C228.554 207.449 225.659 199.024 223.645 190.385C223.452 189.516 222.122 189.868 222.322 190.729Z" fill="#203752"/>
<path d="M251.85 221.61C248.831 226.002 246.39 230.753 244.535 235.744C244.225 236.578 245.562 236.93 245.865 236.103C247.679 231.221 250.099 226.581 253.043 222.292C253.553 221.562 252.354 220.879 251.85 221.61ZM219.673 265.693C222.61 270.292 226.485 274.235 231.022 277.269C235.888 280.523 241.398 282.515 247.155 283.481C253.746 284.584 260.482 284.646 267.142 284.309C273.416 283.991 279.738 283.501 285.95 282.557C292.39 281.578 298.822 279.807 304.241 276.062C304.965 275.559 304.282 274.366 303.551 274.869C298.878 278.096 293.444 279.82 287.901 280.84C282.014 281.922 275.987 282.364 270.024 282.764C257.89 283.571 244.61 283.66 233.779 277.365C228.574 274.339 224.119 270.085 220.879 265.01C220.389 264.259 219.19 264.942 219.673 265.693ZM271.947 206.05C270.638 207.608 269.327 209.165 268.01 210.723C266.915 212.027 265.515 213.337 264.887 214.95C264.26 216.57 264.343 218.425 264.198 220.128C264.019 222.196 263.771 224.257 263.446 226.306C263.349 226.933 264.094 227.519 264.605 226.967C268.239 223.058 271.044 218.515 273.809 213.978C273.382 213.86 272.948 213.751 272.519 213.633C272.782 218.914 273.037 224.203 273.298 229.484C273.319 229.884 273.719 230.318 274.161 230.152C281.634 227.36 289.115 224.568 296.588 221.783C297.416 221.472 297.072 220.134 296.243 220.445C288.77 223.237 281.289 226.029 273.816 228.815C274.105 229.036 274.388 229.263 274.677 229.484C274.416 224.203 274.161 218.914 273.898 213.633C273.864 212.951 272.982 212.681 272.609 213.288C269.907 217.722 267.176 222.176 263.626 225.995C264.012 226.215 264.398 226.437 264.784 226.657C265.066 224.872 265.302 223.072 265.48 221.272C265.652 219.507 265.549 217.57 266.038 215.854C266.522 214.178 268.01 212.847 269.107 211.552C270.382 210.034 271.658 208.524 272.933 207.007C273.498 206.339 272.519 205.367 271.947 206.05ZM197.776 162.268C198.796 162.482 199.754 162.924 200.54 163.613C201.403 164.372 201.919 165.344 202.43 166.35C203.484 168.426 204.843 170.294 206.594 171.831C207.255 172.417 208.229 171.438 207.559 170.852C206.664 170.06 205.835 169.183 205.14 168.219C204.422 167.226 203.884 166.143 203.312 165.067C202.216 162.986 200.472 161.421 198.128 160.939C197.266 160.759 196.901 162.089 197.776 162.268Z" fill="#203752"/>
</svg>
