<svg width="322" height="180" viewBox="0 0 322 180" fill="none" xmlns="http://www.w3.org/2000/svg">
<path d="M105.937 174.483C105.937 177.527 91.5003 179.996 73.6907 179.996C55.8817 179.996 41.4453 177.528 41.4453 174.483C41.4453 171.438 55.8817 168.969 73.6907 168.969C91.5003 168.969 105.937 171.438 105.937 174.483Z" fill="url(#paint0_radial_1273_4282)"/>
<path d="M269.305 174.483C269.305 177.527 254.868 179.996 237.058 179.996C219.249 179.996 204.812 177.528 204.812 174.483C204.812 171.438 219.249 168.969 237.058 168.969C254.868 168.969 269.305 171.438 269.305 174.483Z" fill="url(#paint1_radial_1273_4282)"/>
<path d="M215.74 52.2844C215.311 52.2588 214.893 52.0792 214.572 51.7462C213.896 51.0428 213.916 49.9232 214.62 49.2467L220.271 43.807C220.974 43.1299 222.093 43.1506 222.771 43.854C223.448 44.5574 223.427 45.6776 222.723 46.3535L217.071 51.7931C216.701 52.1499 216.215 52.3126 215.74 52.2844Z" fill="#007AFF"/>
<path d="M212.056 49.4126C211.114 49.3569 210.377 48.5664 210.395 47.6152L210.482 43.0073C210.502 42.031 211.307 41.2556 212.282 41.2737C213.24 41.3082 214.035 42.098 214.017 43.0742L213.929 47.6822C213.911 48.6584 213.104 49.4338 212.13 49.4157C212.105 49.4157 212.08 49.4151 212.056 49.4126Z" fill="#007AFF"/>
<path d="M218.461 56.0715C217.521 56.0152 216.783 55.2248 216.801 54.2729C216.819 53.2966 217.625 52.5206 218.602 52.5394L223.211 52.6276C224.176 52.6595 224.964 53.4518 224.946 54.4281C224.926 55.4044 224.12 56.1792 223.143 56.1616L218.535 56.074C218.51 56.0734 218.485 56.0728 218.461 56.0715Z" fill="#007AFF"/>
<path d="M4.41935 103.705H13.6846C15.7805 103.705 17.4796 105.404 17.4796 107.501C17.4796 109.596 15.7805 111.295 13.6846 111.295H9.36021C7.26371 111.295 5.56648 112.993 5.56648 115.09C5.56648 117.185 7.26371 118.884 9.36021 118.884H36.4539C38.5497 118.884 40.2482 117.185 40.2482 115.09C40.2482 112.992 38.5491 111.295 36.4539 111.295H34.1346C32.0387 111.295 30.3383 109.595 30.3383 107.501C30.3383 105.404 32.0387 103.705 34.1346 103.705H54.9988C57.0934 103.705 58.7925 102.006 58.7925 99.9103C58.7925 97.8144 57.0934 96.1172 54.9988 96.1172H4.41998C2.32348 96.1172 0.625 97.815 0.625 99.9103C0.624374 102.006 2.32348 103.705 4.41935 103.705Z" stroke="#E8E8E8" stroke-width="1.25164" stroke-miterlimit="10" stroke-linecap="round" stroke-linejoin="round"/>
<path d="M29.707 137.789H52.654" stroke="#E8E8E8" stroke-width="1.25164" stroke-miterlimit="10" stroke-linecap="round"/>
<path d="M100.075 159.99C100.075 162.285 98.2141 164.145 95.9199 164.145H51.4634C49.1685 164.145 47.3086 162.285 47.3086 159.99V77.1783C47.3086 74.8834 49.1685 73.0234 51.4634 73.0234H95.9199C98.2141 73.0234 100.075 74.8834 100.075 77.1783V159.99Z" fill="#C7C7C7"/>
<path d="M100.075 155.576C100.075 157.871 98.2141 159.731 95.9199 159.731H51.4634C49.1685 159.731 47.3086 157.871 47.3086 155.576V72.7636C47.3086 70.4687 49.1685 68.6094 51.4634 68.6094H95.9199C98.2141 68.6094 100.075 70.4693 100.075 72.7636V155.576Z" fill="#E8E8E8"/>
<path d="M100.074 75.4531H47.3086V148.812H100.074V75.4531Z" fill="#4D4D4D"/>
<path d="M100.074 134.737L47.3086 96.9153V80.2578L100.074 118.08V134.737Z" fill="#636363"/>
<path d="M100.074 92.0912V75.4531H76.8594L100.074 92.0912Z" fill="#636363"/>
<path d="M78.0671 148.813L47.3086 126.766V143.424L54.8272 148.813H78.0671Z" fill="#636363"/>
<path d="M77.1152 156.595C77.1152 157.055 76.7422 157.428 76.281 157.428H71.0973C70.6386 157.428 70.2656 157.055 70.2656 156.595V151.411C70.2656 150.952 70.6386 150.578 71.0973 150.578H76.281C76.7422 150.578 77.1152 150.952 77.1152 151.411V156.595Z" fill="#C7C7C7"/>
<path d="M58.1048 155.901C57.9752 156.031 57.765 156.031 57.636 155.901L54.3154 152.581C54.1865 152.452 54.1865 152.242 54.3154 152.112C54.445 151.984 54.6546 151.984 54.7842 152.112L58.1048 155.433C58.2337 155.563 58.2337 155.773 58.1048 155.901Z" fill="#C7C7C7"/>
<path d="M54.3154 155.901C54.445 156.031 54.6546 156.031 54.7842 155.901L58.1048 152.581C58.2337 152.452 58.2337 152.242 58.1048 152.112C57.9752 151.984 57.765 151.984 57.636 152.112L54.3154 155.433C54.1865 155.563 54.1865 155.773 54.3154 155.901Z" fill="#C7C7C7"/>
<path d="M93.8544 152.128C93.8544 152.311 93.7073 152.46 93.5233 152.46H88.8278C88.6444 152.46 88.4961 152.311 88.4961 152.128C88.4961 151.946 88.6444 151.797 88.8278 151.797H93.5233C93.7067 151.796 93.8544 151.946 93.8544 152.128Z" fill="#C7C7C7"/>
<path d="M93.8544 154.011C93.8544 154.193 93.7073 154.342 93.5233 154.342H88.8278C88.6444 154.342 88.4961 154.193 88.4961 154.011C88.4961 153.828 88.6444 153.68 88.8278 153.68H93.5233C93.7067 153.679 93.8544 153.828 93.8544 154.011Z" fill="#C7C7C7"/>
<path d="M93.8544 155.886C93.8544 156.07 93.7073 156.217 93.5233 156.217H88.8278C88.6444 156.217 88.4961 156.07 88.4961 155.886C88.4961 155.702 88.6444 155.555 88.8278 155.555H93.5233C93.7067 155.554 93.8544 155.702 93.8544 155.886Z" fill="#C7C7C7"/>
<path d="M79.8396 72.1365C79.8396 72.3812 79.6406 72.579 79.3977 72.579H67.9815C67.7362 72.579 67.5391 72.3812 67.5391 72.1365C67.5391 71.8924 67.7362 71.6953 67.9815 71.6953H79.3977C79.6406 71.6953 79.8396 71.8931 79.8396 72.1365Z" fill="#4D4D4D"/>
<path d="M95.1798 72.128C95.1798 72.7388 94.6841 73.2332 94.0746 73.2332C93.4644 73.2332 92.9688 72.7388 92.9688 72.128C92.9688 71.5178 93.4638 71.0234 94.0746 71.0234C94.6841 71.0234 95.1798 71.5185 95.1798 72.128Z" fill="#4D4D4D"/>
<path d="M193.847 75.5372C190.43 75.5372 187.66 72.7667 187.66 69.3497V36.5048C187.66 23.1992 176.835 12.3737 163.529 12.3737H157.212C143.906 12.3737 133.081 23.1992 133.081 36.5048V69.3497C133.081 72.7667 130.311 75.5372 126.894 75.5372C123.477 75.5372 120.707 72.7667 120.707 69.3497V36.5048C120.707 16.3759 137.084 0 157.211 0H163.528C183.656 0 200.033 16.3759 200.033 36.5048V69.3497C200.034 72.7667 197.264 75.5372 193.847 75.5372Z" fill="#4D4D4D"/>
<path d="M163.526 0H160.367V12.3737H163.526C176.832 12.3737 187.657 23.1992 187.657 36.5048V69.3497C187.657 72.7667 190.427 75.5372 193.844 75.5372C197.261 75.5372 200.031 72.7667 200.031 69.3497V36.5048C200.03 16.3752 183.654 0 163.526 0Z" fill="#404040"/>
<path d="M214.28 134.271C214.28 140.129 209.53 144.877 203.673 144.877H117.063C111.205 144.877 106.457 140.129 106.457 134.271V61.7158C106.457 55.8581 111.205 51.1094 117.063 51.1094H203.673C209.531 51.1094 214.28 55.8581 214.28 61.7158V134.271H214.28Z" fill="#007AFF"/>
<path d="M203.672 51.1094H160.367V144.877H203.672C209.53 144.877 214.279 140.129 214.279 134.271V61.7152C214.279 55.8581 209.53 51.1094 203.672 51.1094Z" fill="#007AFF"/>
<path d="M200.424 109.224C200.424 111.485 198.59 113.32 196.328 113.32H124.412C122.15 113.32 120.316 111.485 120.316 109.224V86.7751C120.316 84.514 122.15 82.6797 124.412 82.6797H196.328C198.59 82.6797 200.424 84.514 200.424 86.7751V109.224Z" fill="#4D4D4D"/>
<path d="M196.326 82.6797H160.367V113.32H196.326C198.587 113.32 200.422 111.485 200.422 109.224V86.7751C200.422 84.514 198.587 82.6797 196.326 82.6797Z" fill="#404040"/>
<path d="M134.897 98.5573L133.91 97.9878L134.898 97.4171C135.453 97.0973 135.641 96.3876 135.323 95.8331C135.001 95.278 134.292 95.0878 133.738 95.4082L132.751 95.9777V94.8399C132.751 94.1991 132.231 93.6797 131.591 93.6797C130.95 93.6797 130.431 94.1991 130.431 94.8399V95.9789L129.443 95.4082C128.889 95.0872 128.179 95.278 127.858 95.8331C127.538 96.3882 127.729 97.0973 128.284 97.4171L129.271 97.9872L128.284 98.5567C127.729 98.8771 127.539 99.5862 127.859 100.141C128.18 100.696 128.89 100.885 129.443 100.566L130.431 99.9967V101.136C130.431 101.777 130.95 102.297 131.591 102.297C132.231 102.297 132.751 101.778 132.751 101.136V99.9973L133.737 100.567C134.292 100.887 135 100.696 135.322 100.142C135.642 99.5862 135.452 98.8777 134.897 98.5573Z" fill="white"/>
<path d="M149.283 98.5573L148.298 97.9878L149.285 97.4171C149.838 97.0973 150.028 96.3876 149.709 95.8331C149.388 95.278 148.679 95.0878 148.125 95.4082L147.138 95.9777V94.8399C147.138 94.1991 146.619 93.6797 145.978 93.6797C145.338 93.6797 144.817 94.1991 144.817 94.8399V95.9789L143.83 95.4082C143.275 95.0872 142.566 95.278 142.245 95.8331C141.925 96.3882 142.116 97.0973 142.671 97.4171L143.658 97.9872L142.671 98.5567C142.116 98.8771 141.926 99.5862 142.246 100.141C142.567 100.696 143.275 100.885 143.831 100.566L144.817 99.9967V101.136C144.817 101.777 145.337 102.297 145.978 102.297C146.619 102.297 147.138 101.778 147.138 101.136V99.9973L148.124 100.567C148.678 100.887 149.388 100.696 149.708 100.142C150.028 99.5862 149.838 98.8777 149.283 98.5573Z" fill="white"/>
<path d="M163.674 98.5573L162.687 97.9878L163.676 97.4171C164.23 97.0973 164.419 96.3876 164.1 95.8331C163.779 95.278 163.069 95.0878 162.516 95.4082L161.529 95.9777V94.8399C161.529 94.1991 161.009 93.6797 160.368 93.6797C159.729 93.6797 159.208 94.1991 159.208 94.8399V95.9789L158.221 95.4082C157.667 95.0872 156.956 95.278 156.637 95.8331C156.315 96.3882 156.507 97.0973 157.06 97.4171L158.048 97.9872L157.062 98.5567C156.507 98.8771 156.317 99.5862 156.637 100.141C156.957 100.696 157.667 100.885 158.222 100.566L159.208 99.9967V101.136C159.208 101.777 159.728 102.297 160.368 102.297C161.009 102.297 161.529 101.778 161.529 101.136V99.9973L162.514 100.567C163.069 100.887 163.778 100.696 164.098 100.142C164.419 99.5862 164.23 98.8777 163.674 98.5573Z" fill="white"/>
<path d="M178.069 98.5573L177.081 97.9878L178.07 97.4171C178.624 97.0973 178.815 96.3876 178.494 95.8331C178.173 95.278 177.464 95.0878 176.91 95.4082L175.923 95.9777V94.8399C175.923 94.1991 175.403 93.6797 174.762 93.6797C174.121 93.6797 173.602 94.1991 173.602 94.8399V95.9789L172.615 95.4082C172.061 95.0872 171.351 95.278 171.031 95.8331C170.71 96.3882 170.9 97.0973 171.456 97.4171L172.442 97.9872L171.456 98.5567C170.9 98.8771 170.711 99.5862 171.031 100.141C171.352 100.696 172.061 100.885 172.616 100.566L173.602 99.9967V101.136C173.602 101.777 174.122 102.297 174.762 102.297C175.403 102.297 175.923 101.778 175.923 101.136V99.9973L176.908 100.567C177.463 100.887 178.173 100.696 178.492 100.142C178.815 99.5862 178.624 98.8777 178.069 98.5573Z" fill="white"/>
<path d="M192.459 98.5573L191.472 97.9878L192.46 97.4171C193.015 97.0973 193.204 96.3876 192.885 95.8331C192.564 95.278 191.855 95.0878 191.3 95.4082L190.313 95.9777V94.8399C190.313 94.1991 189.793 93.6797 189.154 93.6797C188.513 93.6797 187.993 94.1991 187.993 94.8399V95.9789L187.005 95.4082C186.451 95.0872 185.742 95.278 185.421 95.8331C185.101 96.3882 185.292 97.0973 185.845 97.4171L186.834 97.9872L185.846 98.5567C185.292 98.8771 185.102 99.5862 185.422 100.141C185.742 100.696 186.451 100.885 187.006 100.566L187.993 99.9967V101.136C187.993 101.777 188.513 102.297 189.154 102.297C189.793 102.297 190.313 101.778 190.313 101.136V99.9973L191.299 100.567C191.853 100.887 192.564 100.696 192.883 100.142C193.205 99.5862 193.015 98.8777 192.459 98.5573Z" fill="white"/>
<path d="M250.628 22.0847C250.628 24.1812 248.928 25.8796 246.833 25.8796H223.616C221.519 25.8796 219.82 24.1812 219.82 22.0847C219.82 19.9888 221.52 18.2891 223.616 18.2891H246.833C248.929 18.2891 250.628 19.9888 250.628 22.0847Z" stroke="#E8E8E8" stroke-width="1.25164" stroke-miterlimit="10" stroke-linecap="round" stroke-linejoin="round"/>
<path d="M316.664 82.3505H282.56C280.463 82.3505 278.763 80.6521 278.763 78.5562C278.763 76.4591 280.464 74.7612 282.56 74.7612H286.309C288.405 74.7612 290.104 73.0615 290.104 70.9669C290.104 68.8704 288.404 67.1719 286.309 67.1719H263.381C261.285 67.1719 259.586 68.8704 259.586 70.9669C259.586 73.0615 261.285 74.7612 263.381 74.7612H266.945C269.042 74.7612 270.74 76.4597 270.74 78.5562C270.74 80.6521 269.042 82.3505 266.945 82.3505H256.424C254.327 82.3505 252.629 84.0503 252.629 86.1455C252.629 88.2408 254.328 89.9411 256.424 89.9411H280.398C282.494 89.9411 284.192 91.6396 284.192 93.7355C284.192 95.8314 282.494 97.5298 280.398 97.5298H276.074C273.978 97.5298 272.278 99.2289 272.278 101.325C272.278 103.422 273.978 105.12 276.074 105.12H303.166C305.264 105.12 306.962 103.421 306.962 101.325C306.962 99.2289 305.263 97.5298 303.166 97.5298H300.848C298.752 97.5298 297.053 95.8307 297.053 93.7355C297.053 91.6396 298.753 89.9411 300.848 89.9411H316.664C318.761 89.9411 320.46 88.2408 320.46 86.1455C320.46 84.0503 318.76 82.3505 316.664 82.3505Z" stroke="#E8E8E8" stroke-width="1.25164" stroke-miterlimit="10" stroke-linecap="round" stroke-linejoin="round"/>
<path d="M86.0602 37.7715C86.0602 39.8674 84.3617 41.5671 82.2658 41.5671H71.9636C69.8664 41.5671 68.168 39.8674 68.168 37.7715C68.168 35.6757 69.8671 33.9766 71.9636 33.9766H82.2658C84.3617 33.9759 86.0602 35.6757 86.0602 37.7715Z" stroke="#E8E8E8" stroke-width="1.25164" stroke-miterlimit="10" stroke-linecap="round" stroke-linejoin="round"/>
<path d="M291.427 143.342C291.427 145.438 289.727 147.137 287.631 147.137H284.378C282.281 147.137 280.582 145.437 280.582 143.342C280.582 141.245 282.282 139.547 284.378 139.547H287.631C289.727 139.547 291.427 141.246 291.427 143.342Z" stroke="#E8E8E8" stroke-width="1.25164" stroke-miterlimit="10" stroke-linecap="round" stroke-linejoin="round"/>
<path d="M302.675 124.543C302.128 124.908 301.391 124.76 301.028 124.214L301.007 124.187C300.832 123.921 300.473 123.85 300.205 124.026C299.939 124.204 299.869 124.563 300.045 124.829L300.063 124.856C300.427 125.402 300.281 126.14 299.734 126.505C299.473 126.679 299.369 127.029 299.53 127.299C299.701 127.587 300.076 127.67 300.35 127.486L300.378 127.468C300.923 127.104 301.66 127.251 302.025 127.796L302.043 127.825C302.22 128.091 302.58 128.163 302.846 127.984C303.112 127.807 303.182 127.448 303.006 127.183L302.988 127.155C302.623 126.609 302.771 125.871 303.317 125.506L303.344 125.488C303.619 125.305 303.687 124.928 303.486 124.661C303.3 124.409 302.936 124.369 302.675 124.543ZM301.811 126.432C301.575 126.59 301.256 126.525 301.1 126.29C300.939 126.054 301.004 125.735 301.24 125.577C301.476 125.419 301.794 125.483 301.954 125.719C302.11 125.955 302.047 126.274 301.811 126.432Z" fill="#D14B73"/>
<path d="M103.065 28.8809C101.935 28.8809 101.018 27.9654 101.018 26.8345V26.7788C101.018 26.2281 100.571 25.7812 100.023 25.7812C99.4713 25.7812 99.0245 26.2275 99.0245 26.7788V26.8345C99.0245 27.9654 98.1076 28.8809 96.978 28.8809C96.438 28.8809 95.9548 29.2852 95.9273 29.8241C95.896 30.3986 96.3535 30.8742 96.9217 30.8742H96.978C98.1076 30.8742 99.0245 31.7904 99.0245 32.9206V32.9769C99.0245 33.5283 99.4713 33.9739 100.023 33.9739C100.571 33.9739 101.018 33.5283 101.018 32.9769V32.9206C101.018 31.7904 101.935 30.8742 103.065 30.8742H103.122C103.689 30.8742 104.148 30.3986 104.118 29.8241C104.089 29.2846 103.604 28.8809 103.065 28.8809ZM100.023 30.7609C99.5345 30.7609 99.1365 30.366 99.1365 29.8773C99.1365 29.3897 99.5345 28.9923 100.023 28.9923C100.51 28.9923 100.906 29.3891 100.906 29.8773C100.906 30.3666 100.511 30.7609 100.023 30.7609Z" fill="#E783A5"/>
<path d="M294.546 39.8784C294.546 42.0888 292.753 43.8811 290.543 43.8811C288.333 43.8811 286.539 42.0888 286.539 39.8784C286.539 37.6667 288.332 35.875 290.543 35.875C292.753 35.875 294.546 37.6667 294.546 39.8784Z" stroke="#007AFF" stroke-width="1.25164" stroke-miterlimit="10"/>
<path d="M26.4058 67.1681C26.4058 69.3791 24.6135 71.1708 22.4018 71.1708C20.1927 71.1708 18.3984 69.3791 18.3984 67.1681C18.3984 64.9564 20.1927 63.1641 22.4018 63.1641C24.6135 63.1641 26.4058 64.9564 26.4058 67.1681Z" stroke="#007AFF" stroke-width="0.977094" stroke-miterlimit="10"/>
<path d="M263.721 160.777C263.721 162.64 262.211 164.15 260.349 164.15H213.767C211.905 164.15 210.395 162.64 210.395 160.777V125.927C210.395 124.064 211.905 122.555 213.767 122.555H260.349C262.211 122.555 263.721 124.064 263.721 125.927V160.777Z" fill="#FF9500"/>
<path d="M262.569 123.206L240.09 106.926C238.416 105.712 235.704 105.712 234.03 106.926C234.03 106.926 211.567 123.165 211.374 123.344C211.374 123.344 210.457 124.421 210.457 125.329L234.031 142.444C235.704 143.658 238.416 143.658 240.091 142.444L263.662 125.329C263.519 124.53 263.169 123.704 262.569 123.206Z" fill="#6D7075"/>
<path d="M213.77 164.144H260.351C262.007 164.144 263.379 162.946 263.662 161.372L240.09 140.973C238.416 139.759 235.703 139.759 234.03 140.973L210.457 161.371C210.741 162.946 212.112 164.144 213.77 164.144Z" fill="#FF9500"/>
<path d="M215.922 113.469V129.293L234.034 142.442C235.707 143.656 238.419 143.656 240.094 142.442L258.201 129.296V113.469H215.922Z" fill="#007AFF"/>
<path d="M234.034 139.149L215.922 126V129.284L234.034 142.434C235.707 143.648 238.419 143.648 240.094 142.434L258.201 129.287V126.003L240.094 139.149C238.419 140.364 235.707 140.364 234.034 139.149Z" fill="#007AFF"/>
<path d="M246.009 120.596H228.111C227.623 120.596 227.227 120.2 227.227 119.712C227.227 119.224 227.623 118.828 228.111 118.828H246.009C246.498 118.828 246.892 119.224 246.892 119.712C246.892 120.2 246.498 120.596 246.009 120.596Z" fill="white"/>
<path d="M251.74 125.408H222.373C221.884 125.408 221.488 125.012 221.488 124.524C221.488 124.036 221.884 123.641 222.373 123.641H251.74C252.228 123.641 252.623 124.036 252.623 124.524C252.623 125.012 252.228 125.408 251.74 125.408Z" fill="white"/>
<path d="M251.74 129.291H222.373C221.884 129.291 221.488 128.895 221.488 128.406C221.488 127.918 221.884 127.523 222.373 127.523H251.74C252.228 127.523 252.623 127.918 252.623 128.406C252.623 128.895 252.228 129.291 251.74 129.291Z" fill="white"/>
<path d="M251.74 133.174H222.373C221.884 133.174 221.488 132.778 221.488 132.291C221.488 131.802 221.884 131.406 222.373 131.406H251.74C252.228 131.406 252.623 131.802 252.623 132.291C252.623 132.778 252.228 133.174 251.74 133.174Z" fill="white"/>
<path d="M251.744 133.174C252.232 133.174 252.627 132.778 252.627 132.291C252.627 131.802 252.232 131.406 251.744 131.406H250.759L248.324 133.174H251.744Z" fill="#E6EBF7"/>
<path d="M223.361 131.406H222.373C221.884 131.406 221.488 131.802 221.488 132.291C221.488 132.778 221.884 133.174 222.373 133.174H225.796L223.361 131.406Z" fill="#E6EBF7"/>
<path d="M252.625 53.5312L231.488 62.3628C231.488 62.3628 233.012 78.7118 235.423 89.0241C236.539 93.7922 252.625 104.022 252.625 104.022C252.625 104.022 268.714 93.7922 269.829 89.0241C272.24 78.7118 273.764 62.3628 273.764 62.3628L252.625 53.5312Z" fill="#4D4D4D"/>
<path d="M269.828 89.0241C272.24 78.7118 273.763 62.3628 273.763 62.3628L252.625 53.5312V104.022C252.625 104.022 268.714 93.7922 269.828 89.0241Z" fill="#404040"/>
<path d="M252.63 99.8091C245.697 95.1993 239.487 89.9931 238.856 88.1776C237.041 80.4099 235.717 70.3348 235.227 64.6386L252.629 57.3672L270.032 64.6386C269.54 70.3373 268.215 80.4237 266.391 88.2239C265.77 90.0006 259.562 95.2024 252.63 99.8091Z" fill="#86CC68"/>
<path d="M252.627 99.8091C259.558 95.2024 265.767 90.0006 266.387 88.2239C268.211 80.4231 269.537 70.3373 270.028 64.6386L252.625 57.3672V99.8085L252.627 99.8091Z" fill="#74BF54"/>
<path d="M252.627 86.1449C252.062 86.1449 251.498 85.9296 251.065 85.4984L245.909 80.3429C245.046 79.4793 245.046 78.0805 245.909 77.2169C246.773 76.3545 248.17 76.3545 249.034 77.2169L252.627 80.811L261.378 72.0608C262.241 71.199 263.639 71.1978 264.501 72.0614C265.365 72.9238 265.365 74.3225 264.501 75.1867L254.189 85.499C253.758 85.9296 253.193 86.1449 252.627 86.1449Z" fill="white"/>
<path d="M254.191 85.4988L264.503 75.1865C265.367 74.3223 265.367 72.9242 264.503 72.0612C263.641 71.1982 262.243 71.1988 261.38 72.0605L252.629 80.8108V86.1446C253.194 86.1453 253.759 85.93 254.191 85.4988Z" fill="#E6EBF7"/>
<path d="M220.722 160.724C220.722 166.423 193.703 171.041 160.372 171.041C127.042 171.041 100.023 166.422 100.023 160.724C100.023 155.025 127.042 150.406 160.372 150.406C193.703 150.406 220.722 155.024 220.722 160.724Z" fill="url(#paint2_radial_1273_4282)"/>
<defs>
<radialGradient id="paint0_radial_1273_4282" cx="0" cy="0" r="1" gradientUnits="userSpaceOnUse" gradientTransform="translate(73.6914 174.483) scale(32.2475 5.5133)">
<stop stop-color="#424242" stop-opacity="0.6"/>
<stop offset="0.226" stop-color="#6F6F6F" stop-opacity="0.4644"/>
<stop offset="0.7608" stop-color="#D6D6D6" stop-opacity="0.1435"/>
<stop offset="1" stop-color="white" stop-opacity="0"/>
</radialGradient>
<radialGradient id="paint1_radial_1273_4282" cx="0" cy="0" r="1" gradientUnits="userSpaceOnUse" gradientTransform="translate(237.058 174.483) scale(32.2475 5.5133)">
<stop stop-color="#424242" stop-opacity="0.6"/>
<stop offset="0.226" stop-color="#6F6F6F" stop-opacity="0.4644"/>
<stop offset="0.7608" stop-color="#D6D6D6" stop-opacity="0.1435"/>
<stop offset="1" stop-color="white" stop-opacity="0"/>
</radialGradient>
<radialGradient id="paint2_radial_1273_4282" cx="0" cy="0" r="1" gradientUnits="userSpaceOnUse" gradientTransform="translate(160.373 160.724) scale(60.349 10.3178)">
<stop stop-color="#424242" stop-opacity="0.6"/>
<stop offset="0.226" stop-color="#6F6F6F" stop-opacity="0.4644"/>
<stop offset="0.7608" stop-color="#D6D6D6" stop-opacity="0.1435"/>
<stop offset="1" stop-color="white" stop-opacity="0"/>
</radialGradient>
</defs>
</svg>
