<svg width="393" height="393" viewBox="0 0 393 393" fill="none" xmlns="http://www.w3.org/2000/svg">
<path d="M274.987 285.346C320.687 239.644 320.686 165.548 274.984 119.848C229.282 74.1478 155.186 74.1491 109.486 119.851C63.7857 165.553 63.787 239.649 109.489 285.349C155.191 331.049 229.287 331.048 274.987 285.346Z" fill="#EEEDF7"/>
<path d="M229.772 340.583C229.772 343.483 215.265 345.833 197.37 345.833C179.476 345.833 164.969 343.483 164.969 340.583C164.969 337.682 179.476 335.332 197.37 335.332C215.265 335.332 229.772 337.682 229.772 340.583Z" fill="#007AFF"/>
<path d="M164.969 134.492H230.212V340.577H164.969V134.492Z" fill="#007AFF"/>
<path opacity="0.2" d="M230.211 170.931L164.969 154.396V134.492H230.211V170.931Z" fill="#395B64"/>
<path d="M213.013 85.5711C211.146 85.5711 209.423 84.9122 207.926 83.6048L209.981 81.2494C211.476 82.5528 213.229 82.7847 215.335 81.9607C220.318 80.0114 225.63 72.623 226.263 66.7595C226.523 64.3596 225.945 62.671 224.547 61.7369C220.366 58.9506 216.202 64.4709 216.026 64.708L213.51 62.8531C215.597 60.0143 220.952 55.5852 226.28 59.1366C228.657 60.7217 229.754 63.5474 229.372 67.0948C228.62 74.0523 222.472 82.524 216.474 84.8702C215.28 85.3392 214.121 85.5711 213.013 85.5711Z" fill="#D3C848"/>
<g opacity="0.2">
<path d="M222 60.9683C221.748 59.9216 221.774 58.8264 222.148 57.8282C218.373 57.8086 215.051 60.76 213.512 62.8547L216.027 64.7097C216.166 64.521 218.821 61.0168 222 60.9683ZM214.21 82.2964C212.595 82.6501 211.201 82.3121 209.981 81.2497L207.926 83.6051C209.423 84.9112 211.146 85.5714 213.013 85.5714C213.267 85.5714 213.525 85.5557 213.784 85.5308C213.626 84.433 213.804 83.3247 214.21 82.2964Z" fill="#395B64"/>
</g>
<path d="M182.17 85.57C184.037 85.57 185.759 84.9111 187.257 83.6037L185.201 81.2483C183.707 82.5518 181.954 82.7849 179.847 81.9596C174.863 80.0104 169.551 72.6233 168.917 66.7597C168.657 64.3598 169.234 62.6712 170.633 61.7372C174.814 58.9508 178.978 64.4698 179.154 64.7069L181.67 62.852C179.583 60.0132 174.226 55.5854 168.9 59.1368C166.523 60.7219 165.426 63.5476 165.809 67.0951C166.563 74.0525 172.71 82.5243 178.709 84.8692C179.902 85.3381 181.062 85.57 182.17 85.57Z" fill="#D3C848"/>
<g opacity="0.2">
<path d="M173.179 60.9735C173.432 59.9268 173.405 58.8317 173.031 57.8321C176.807 57.8125 180.129 60.7626 181.669 62.8586L179.154 64.7136C179.014 64.5249 176.359 61.0207 173.179 60.9735ZM180.972 82.3016C182.588 82.6553 183.982 82.3173 185.201 81.2536L187.257 83.609C185.759 84.9164 184.037 85.5753 182.17 85.5753C181.916 85.5753 181.658 85.5596 181.398 85.536C181.555 84.4369 181.379 83.33 180.972 82.3016Z" fill="#395B64"/>
</g>
<path d="M206.225 115.497C200.335 116.814 194.226 116.814 188.336 115.498C190.08 107.697 193.568 100.087 193.567 92.0938H200.993C200.993 100.086 204.483 107.696 206.225 115.497Z" fill="#D3C848"/>
<path d="M219.561 51.8383C219.561 48.7625 209.585 46.2695 197.281 46.2695C184.978 46.2708 175.002 48.7651 175.002 51.841C172.777 82.4124 197.284 98.997 197.284 98.997C197.284 98.997 221.79 82.4111 219.561 51.8383Z" fill="#D3C848"/>
<path opacity="0.2" d="M219.556 51.8345C219.556 50.6346 218.022 49.5263 215.44 48.6172C217.417 52.9507 217.485 57.9811 216.397 62.6289C215.821 65.0917 212.74 65.5489 211.698 75.4394C209.906 92.4603 200.829 79.0262 200.62 88.6652C200.59 90.0839 200.385 91.4319 199.707 92.6738C199.048 93.8803 198.095 94.9977 198.044 96.4348C197.988 98.0094 198.613 99.6089 199.09 101.084C199.957 103.769 200.514 106.636 199.029 109.227C197.083 112.626 192.698 112.505 189.29 111.774C188.944 113.012 188.614 114.252 188.336 115.497C194.226 116.813 200.335 116.813 206.225 115.495C204.752 108.902 202.039 102.445 201.232 95.7785C208.066 89.594 221.216 74.5919 219.556 51.8345Z" fill="#395B64"/>
<path d="M197.46 55.3438L200.351 61.1995L206.812 62.1374L202.137 66.6962L203.241 73.1309L197.461 70.093L191.682 73.1322L192.786 66.6962L188.109 62.1387L194.572 61.1995L197.46 55.3438Z" fill="#E2D661"/>
<path d="M178.531 113.473H216.777V128.593H178.531V113.473Z" fill="#395B64"/>
<path d="M208.546 116.066L186.763 116.068C184.02 116.068 181.797 118.292 181.797 121.034C181.797 123.777 184.02 126 186.763 126L208.546 125.999C211.289 125.999 213.512 123.774 213.512 121.033C213.512 118.291 211.288 116.066 208.546 116.066Z" fill="#D3C848"/>
<path d="M234.332 128.668H160.833C157.62 128.668 155.016 131.272 155.016 134.486C155.016 137.699 157.62 140.303 160.833 140.303H234.332C237.546 140.303 240.15 137.699 240.15 134.486C240.151 131.274 237.546 128.668 234.332 128.668Z" fill="#007AFF"/>
<path d="M191.235 181.057L193.186 345.828C194.85 352.184 231.609 368.259 231.609 368.259L236.964 365.839L198.058 345.826L198.006 338.451L223.96 333.65V343.575C225.293 347.406 266.533 360.66 266.533 360.66C268.903 361.993 270.669 356.064 270.669 356.064L229.876 340.648L227.833 173.651C227.816 172.19 226.695 171.273 225.329 171.608C223.964 171.941 222.87 173.395 222.888 174.856L223.044 187.56L196.333 192.361L196.18 179.851C196.162 178.39 195.04 177.474 193.675 177.808C192.309 178.142 191.216 179.597 191.235 181.057ZM197.593 309.131L224.304 304.33L224.674 330.12L197.963 334.921L197.593 309.131ZM197.397 279.395L224.108 274.594L224.26 300.796L197.549 305.598L197.397 279.395ZM197.147 258.862L223.858 254.061L224.066 271.062L197.355 275.863L197.147 258.862ZM196.895 238.329L223.606 233.528L223.814 250.529L197.103 255.33L196.895 238.329ZM196.644 217.795L223.354 212.994L223.563 229.995L196.852 234.796L196.644 217.795ZM196.376 195.896L223.087 191.094L223.311 209.462L196.6 214.263L196.376 195.896Z" fill="#818181" fill-opacity="0.5"/>
<path d="M189.595 167.299L197.556 205.447C197.507 205.667 197.497 205.908 197.536 206.164C197.586 206.486 197.722 206.779 197.891 207.052L231.38 367.523C231.705 369.082 232.77 370.168 233.969 370.319C234.284 370.358 234.611 370.333 234.934 370.232C236.473 369.758 237.38 367.79 236.966 365.838L229.456 330.428L258.195 325.716L265.872 359.169C266.209 360.636 267.198 361.667 268.282 361.821C268.567 361.861 268.861 361.842 269.149 361.751C270.523 361.324 271.285 359.486 270.857 357.648L227.144 169.695C226.804 168.237 225.465 167.029 224.15 166.995C222.828 166.961 222.025 168.123 222.362 169.593L225.324 182.497L197.691 180.661L194.884 167.426C194.56 165.896 193.119 164.625 191.665 164.583C190.203 164.541 189.273 165.756 189.595 167.299ZM226.156 186.123L230.547 205.255L202.721 204.38L198.491 184.437L226.156 186.123ZM203.547 208.273L231.404 208.988L235.584 227.202L207.579 227.284L203.547 208.273ZM208.429 231.29L236.466 231.039L240.764 249.766L212.58 250.858L208.429 231.29ZM213.453 254.982L241.668 253.71L246.088 272.969L217.727 275.131L213.453 254.982ZM218.629 279.381L247.02 277.028L251.567 296.845L223.032 300.141L218.629 279.381ZM228.497 325.915L223.959 304.519L252.525 301.021L257.205 321.418L228.497 325.915Z" fill="#395B64"/>
<path opacity="0.2" d="M189.595 167.299L197.557 205.449C197.508 205.669 197.496 205.91 197.536 206.165C197.586 206.488 197.722 206.781 197.891 207.053L231.38 367.524C231.704 369.083 232.769 370.169 233.968 370.32C234.284 370.359 234.61 370.334 234.932 370.234C236.472 369.759 237.378 367.792 236.964 365.84L229.454 330.429L258.193 325.717L265.871 359.171C266.207 360.638 267.196 361.669 268.28 361.823C268.565 361.864 268.859 361.843 269.147 361.754C270.521 361.326 271.283 359.488 270.855 357.651L262.919 323.528C262.082 322.453 261.295 321.333 260.587 320.146C259.245 317.893 258.161 315.479 257.344 312.959C256.311 309.774 255.684 306.431 254.808 303.193C253.918 299.91 252.877 296.702 251.707 293.523C250.536 290.343 249.629 287.021 248.741 283.741C245.22 270.746 243.016 257.401 240.095 244.244C239.351 240.896 238.562 237.558 237.691 234.245C237.092 231.968 236.419 229.722 235.744 227.474C234.61 229.118 231.888 229.013 230.207 229.035C227.16 229.076 224.123 229.415 221.074 229.356C219.13 229.318 217.167 229.195 215.222 229.099C213.364 229.009 211.431 228.853 209.673 228.193C209.099 227.977 208.579 227.669 208.168 227.282L207.578 227.284L203.546 208.274L231.403 208.99L232.758 214.892C232.259 211.746 231.897 208.57 231.572 205.403C231.23 202.075 230.933 198.744 230.57 195.419C230.227 192.273 229.546 189.189 228.853 186.113C227.501 180.109 226.041 174.087 226.054 167.857C225.506 167.345 224.826 167.013 224.148 166.995C222.827 166.961 222.024 168.123 222.36 169.593L225.322 182.497L224.396 182.436C224.351 182.661 224.207 182.832 223.969 182.887C222.289 183.274 220.576 183.356 218.866 183.378C217.132 183.401 215.421 183.446 213.691 183.544C210.158 183.742 206.593 183.492 203.131 182.779C200.474 182.232 197.813 181.607 195.906 179.47C194.273 177.639 193.356 175.196 192.732 172.8C192.035 170.123 191.701 167.362 191.436 164.602C190.111 164.689 189.291 165.841 189.595 167.299ZM223.958 304.519L252.524 301.021L257.083 320.882C257.177 321.006 257.215 321.165 257.183 321.317L257.206 321.416L257.15 321.426C257.115 321.495 257.065 321.561 256.986 321.616C252.64 324.707 247.271 326.168 242.149 326.874C238.895 327.322 235.383 327.991 232.13 327.421C230.964 327.217 229.768 326.761 229.063 325.826L228.498 325.915L223.958 304.519ZM218.628 279.381L247.018 277.027L251.567 296.843L251.166 296.889C251.154 296.935 251.149 296.98 251.123 297.028C250.483 298.216 249.209 298.7 248.028 299.057C246.569 299.499 245.078 299.885 243.586 300.175C241.281 300.624 238.937 300.904 236.601 301.073C234.839 301.202 233.073 301.276 231.308 301.27C229.442 301.265 227.523 301.211 225.705 300.752C225.158 300.615 224.493 300.386 223.949 300.031L223.03 300.137L218.628 279.381ZM213.454 254.982L241.668 253.71L246.088 272.969L245.144 273.041C245.104 273.17 245.014 273.288 244.862 273.362C241.178 275.122 237.043 275.306 233.085 275.576C228.851 275.865 224.573 276.861 220.352 276.067C219.685 275.941 219.013 275.745 218.494 275.269C218.434 275.214 218.388 275.146 218.333 275.086L217.727 275.132L213.454 254.982ZM212.054 248.387L208.428 231.29L236.464 231.04L240.762 249.766L239.192 249.826C238.172 250.789 236.631 250.866 235.319 251.041C232.845 251.369 230.338 251.498 227.854 251.676C225.862 251.819 223.903 252.108 221.92 252.353C220.183 252.568 218.37 252.72 216.653 252.328C215.509 252.068 214.496 251.553 213.643 250.817L212.58 250.857L212.209 249.111C212.167 249.043 212.121 248.981 212.082 248.912C211.977 248.731 211.989 248.546 212.054 248.387ZM198.491 184.438L226.155 186.124L230.262 204.017C230.708 204.029 230.827 204.69 230.485 204.99L230.545 205.256L229.777 205.231C224.801 206.506 219.696 207.259 214.588 207.368C212.73 207.407 210.839 207.422 208.992 207.199C207.504 207.019 205.962 206.666 204.704 205.784C204.162 205.403 203.74 204.934 203.428 204.403L202.719 204.381L198.491 184.438Z" fill="#2B4C54"/>
<path d="M289.828 334.73L290.459 336.071C290.459 336.071 287.627 341.072 282.486 344.495C278.272 347.301 275.834 347.762 275.031 346.308L289.828 334.73Z" fill="#395B64"/>
<path d="M275.664 343.68C278.738 338.905 283.224 332.099 283.224 332.099C283.224 332.099 285.54 329.874 287.277 330.82C288.358 331.408 288.646 333.14 290.027 335.002C290.838 336.094 283.507 343.738 278.618 346.025C277.451 346.572 273.001 347.816 275.664 343.68Z" fill="#2B4C54"/>
<path d="M284.934 325.438C285.019 325.652 286.972 331.38 286.972 331.38C286.972 331.38 286.883 334.234 284.235 334.731C281.586 335.226 279.035 327.79 279.035 327.79L284.934 325.438Z" fill="#F5B297"/>
<path d="M283.84 335.925C283.84 335.925 283.267 331.529 281.232 331.161C279.198 330.793 280.178 336.744 280.178 336.744C280.178 336.744 276.046 342.285 275.966 343.216C275.887 344.147 279.641 343.736 283.84 335.925Z" fill="#395B64"/>
<path d="M272.393 244.427C272.393 244.427 262.548 256.86 258.375 281.166C255.968 295.18 279.107 330.099 279.107 330.099L286.202 327.367L278.598 288.795L300.017 240.395L272.393 244.427Z" fill="#2B4C54"/>
<path d="M295.503 354L295.594 355.478C295.594 355.478 291.111 359.075 285.068 360.35C280.115 361.395 277.678 360.921 277.473 359.273L295.503 354Z" fill="#395B64"/>
<path d="M279.032 357.068C283.656 353.772 290.343 349.111 290.343 349.111C290.343 349.111 293.318 347.903 294.583 349.424C295.369 350.37 294.995 352.086 295.589 354.328C295.937 355.643 286.297 360.029 280.908 360.34C279.62 360.415 275.026 359.924 279.032 357.068Z" fill="#2B4C54"/>
<path d="M294.398 343.559C294.398 343.789 294.09 349.832 294.09 349.832C294.09 349.832 292.949 352.451 290.305 351.931C287.662 351.411 288.047 343.559 288.047 343.559H294.398Z" fill="#F5B297"/>
<path d="M289.495 352.895C289.495 352.895 290.592 348.599 288.838 347.503C287.085 346.408 285.791 352.299 285.791 352.299C285.791 352.299 279.9 355.916 279.482 356.75C279.063 357.586 282.7 358.593 289.495 352.895Z" fill="#395B64"/>
<path d="M302.599 239.906L280.727 245.203C280.727 245.203 276.017 299.372 287.036 346.764C287.036 346.764 289.948 349.372 294.83 346.484C294.83 346.484 298.116 285.159 300.521 274.594C302.925 264.029 308.067 250.997 302.599 239.906Z" fill="#395B64"/>
<path d="M305.205 203.715C305.205 203.715 321.358 224.476 317.058 231.792C313.699 237.506 302.348 219.854 302.348 219.854L305.205 203.715Z" fill="#FA9C70"/>
<path d="M271.7 205.035C271.7 205.035 255.28 220.2 260.897 226.724C267.978 234.945 276.162 213.195 276.162 213.195L271.7 205.035Z" fill="#FDAE88"/>
<path d="M303.671 221.952C301.745 222.506 299.757 223.009 298.107 223.877C295.565 218.767 292.959 213.43 291.688 210.523C285.923 197.396 288.491 192.223 288.491 192.223C301.443 193.783 308.177 204.271 312.582 213.988C312.582 213.988 306.541 221.133 303.671 221.952ZM276.49 215.885C278.337 212.181 280.231 208.308 281.157 206.195C285.334 196.669 283.476 192.916 283.476 192.916C277.187 193.508 272.179 199.306 267.658 206.293C267.658 206.293 265.621 209.639 266.09 210.581C267.579 213.574 273.538 214.312 276.49 215.885Z" fill="#007AFF"/>
<path opacity="0.1" d="M278.467 204.473C278.137 204.725 277.791 204.959 277.426 205.156C276.23 205.805 274.679 205.991 273.612 206.84C272.859 207.438 272.583 208.424 272.209 209.271C271.814 210.167 271.267 210.968 270.416 211.486C269.744 211.896 268.971 212.199 268.168 212.371C270.066 214.408 273.894 214.497 276.49 215.88C278.338 212.175 280.232 208.303 281.158 206.19C281.322 205.815 281.461 205.466 281.607 205.109C281.543 205.133 281.479 205.158 281.415 205.183C280.356 205.587 279.26 205.198 278.467 204.473ZM304.654 216.818C304.215 216.302 301.207 206.362 300.687 205.923C300.057 205.391 299.916 214.143 299.134 214.213C297.507 214.357 295.893 214.928 294.25 214.612C293.98 214.561 293.726 214.485 293.478 214.401C294.798 217.177 296.465 220.571 298.108 223.874C299.757 223.005 301.746 222.502 303.672 221.948C305.151 221.526 307.203 219.726 308.849 218.08C306.588 218.596 306.252 218.695 304.654 216.818Z" fill="#231F20"/>
<path d="M286.534 191.996C286.534 191.996 274.476 192.369 272.913 208.775C271.351 225.181 265.322 244.383 270.011 247.366C274.699 250.349 300.599 250.349 305.287 246.993C309.976 243.636 303.501 213.622 301.715 207.282C299.931 200.945 298.367 192.368 286.534 191.996Z" fill="#007AFF"/>
<path opacity="0.1" d="M305.825 227.527C305.695 229.826 305.437 232.118 304.904 234.38C304.06 237.964 302.439 241.724 299.23 244.32C295.608 247.252 290.734 247.509 286.001 247.966C281.125 248.436 276.149 248.715 271.593 246.904C270.503 246.47 269.53 245.912 268.656 245.273C268.935 246.239 269.37 246.96 270.012 247.369C274.701 250.351 300.601 250.351 305.289 246.995C307.701 245.271 307.16 236.503 305.825 227.527Z" fill="#231F20"/>
<path d="M263.638 227.533C274.298 222.857 249.827 196.176 249.827 196.176L246.391 198.906C246.391 198.905 257.142 230.384 263.638 227.533Z" fill="#FDAE88"/>
<path d="M250.778 199.822C250.778 199.822 249.658 196.686 249.829 196.171C250.121 195.295 250.466 195.818 250.094 192.488C249.836 190.185 251.177 189.155 250.545 188.651C249.299 187.659 248.054 191.481 248.054 191.481C248.054 191.481 247.061 183.882 245.749 184.256C245.041 184.457 245.822 190.16 245.822 190.16C245.822 190.16 244.98 189.105 244.411 189.482C243.574 190.038 244.093 191.167 244.093 191.167C244.093 191.167 243.453 190.777 242.969 191.361C242.415 192.028 243.03 192.767 243.03 192.767C243.03 192.767 242.531 192.463 242.176 192.683C241.82 192.904 241.308 193.503 242.691 195.287C243.818 196.74 246.384 197.219 247.449 201.523L250.778 199.822Z" fill="#FDAE88"/>
<path d="M244.837 194.114C245.136 194.063 245.407 193.888 245.577 193.671C245.862 193.307 245.852 192.869 245.552 192.531C245.546 192.524 245.539 192.519 245.531 192.515C245.523 192.511 245.514 192.508 245.505 192.508C245.496 192.507 245.487 192.509 245.478 192.512C245.47 192.515 245.462 192.52 245.455 192.526C245.427 192.551 245.424 192.595 245.45 192.623C245.707 192.912 245.715 193.273 245.47 193.586C245.22 193.907 244.715 194.125 244.278 193.896C243.479 193.478 243.101 192.743 243.097 192.736C243.088 192.72 243.074 192.709 243.057 192.705C243.04 192.7 243.022 192.702 243.007 192.71C242.991 192.718 242.979 192.731 242.973 192.748C242.967 192.764 242.967 192.782 242.974 192.798C242.99 192.83 243.375 193.58 244.214 194.018C244.417 194.125 244.633 194.149 244.837 194.114Z" fill="#FA9C70"/>
<path d="M246.3 193.029C246.403 193.012 246.494 192.957 246.569 192.866C246.925 192.427 246.83 191.104 245.875 190.108C245.868 190.101 245.861 190.096 245.853 190.093C245.845 190.089 245.836 190.087 245.827 190.087C245.818 190.086 245.809 190.088 245.8 190.091C245.792 190.094 245.784 190.099 245.778 190.105C245.771 190.112 245.766 190.119 245.762 190.127C245.759 190.135 245.757 190.144 245.756 190.153C245.756 190.162 245.758 190.171 245.761 190.18C245.764 190.188 245.769 190.196 245.775 190.202C246.648 191.113 246.79 192.373 246.462 192.778C246.308 192.966 246.1 192.897 245.953 192.805C245.049 192.242 244.159 191.131 244.149 191.119C244.144 191.112 244.137 191.106 244.129 191.102C244.121 191.098 244.112 191.095 244.103 191.094C244.094 191.093 244.085 191.094 244.076 191.096C244.068 191.099 244.059 191.103 244.052 191.109C244.022 191.132 244.018 191.176 244.042 191.206C244.051 191.218 244.956 192.347 245.88 192.923C246.031 193.016 246.173 193.052 246.3 193.029ZM243.539 195.182C243.732 195.149 243.889 195.052 244 194.93C244.274 194.63 244.345 194.09 243.937 193.682C243.931 193.675 243.923 193.67 243.915 193.666C243.907 193.663 243.898 193.661 243.889 193.661C243.88 193.661 243.871 193.663 243.862 193.666C243.854 193.67 243.846 193.675 243.84 193.682C243.813 193.708 243.813 193.752 243.84 193.779C244.187 194.127 244.13 194.584 243.899 194.837C243.679 195.078 243.231 195.2 242.69 194.753C242.253 194.392 241.953 193.667 241.95 193.661C241.943 193.644 241.929 193.631 241.912 193.623C241.896 193.616 241.877 193.616 241.86 193.623C241.843 193.63 241.829 193.643 241.822 193.66C241.815 193.677 241.815 193.696 241.822 193.713C241.835 193.745 242.137 194.477 242.601 194.861C242.956 195.153 243.28 195.226 243.539 195.182ZM247.073 195.728C247.097 195.724 247.117 195.708 247.126 195.685C247.139 195.649 247.122 195.61 247.086 195.596C246.627 195.419 246.342 195.149 246.243 194.793C246.02 194.004 246.756 193.032 246.764 193.023C246.788 192.993 246.781 192.949 246.751 192.926C246.744 192.92 246.736 192.916 246.727 192.914C246.718 192.911 246.709 192.911 246.7 192.912C246.691 192.913 246.682 192.916 246.674 192.921C246.666 192.925 246.66 192.932 246.654 192.939C246.621 192.981 245.869 193.974 246.109 194.829C246.222 195.23 246.534 195.531 247.037 195.724C247.05 195.729 247.062 195.73 247.073 195.728ZM246.929 197.939C246.984 197.93 247.038 197.914 247.09 197.892C247.548 197.702 247.819 197.093 247.903 196.874C248.134 196.993 248.361 197.021 248.579 196.957C249.021 196.827 249.258 196.363 249.268 196.344C249.285 196.31 249.271 196.269 249.237 196.252C249.221 196.244 249.202 196.242 249.185 196.248C249.167 196.253 249.153 196.266 249.144 196.282C249.142 196.286 248.923 196.713 248.539 196.826C248.337 196.885 248.123 196.848 247.901 196.716C247.892 196.711 247.882 196.708 247.872 196.707C247.862 196.706 247.852 196.707 247.842 196.71C247.823 196.718 247.808 196.734 247.802 196.754C247.799 196.761 247.531 197.562 247.039 197.765C246.866 197.837 246.684 197.825 246.496 197.731C246.487 197.727 246.479 197.724 246.469 197.724C246.46 197.723 246.451 197.724 246.443 197.727C246.434 197.73 246.426 197.735 246.419 197.741C246.412 197.747 246.407 197.754 246.403 197.762C246.386 197.796 246.4 197.838 246.434 197.855C246.602 197.938 246.768 197.967 246.929 197.939ZM246.183 195.738C246.209 195.734 246.231 195.715 246.238 195.689C246.239 195.682 246.414 194.973 245.583 194.596C245.548 194.58 245.507 194.596 245.491 194.63C245.475 194.665 245.491 194.706 245.525 194.722C246.248 195.049 246.109 195.63 246.104 195.653C246.101 195.664 246.101 195.676 246.104 195.687C246.107 195.698 246.112 195.709 246.12 195.717C246.128 195.725 246.138 195.732 246.149 195.736C246.16 195.739 246.171 195.74 246.183 195.738ZM246.809 186.863C246.84 186.858 246.864 186.832 246.866 186.799C246.867 186.781 246.861 186.763 246.848 186.749C246.836 186.736 246.819 186.728 246.801 186.727L246.109 186.695C246.1 186.695 246.091 186.696 246.082 186.699C246.074 186.702 246.066 186.707 246.059 186.713C246.053 186.719 246.047 186.726 246.043 186.735C246.04 186.743 246.037 186.752 246.037 186.761C246.036 186.799 246.065 186.832 246.103 186.833L246.794 186.864C246.8 186.863 246.805 186.863 246.809 186.863ZM247.144 188.975C247.178 188.97 247.203 188.939 247.202 188.904C247.201 188.886 247.193 188.868 247.179 188.856C247.166 188.843 247.148 188.837 247.13 188.837L246.321 188.869C246.312 188.869 246.303 188.871 246.295 188.875C246.287 188.879 246.28 188.884 246.273 188.891C246.267 188.898 246.263 188.906 246.26 188.914C246.257 188.923 246.255 188.932 246.256 188.941C246.257 188.979 246.29 189.009 246.328 189.008L247.136 188.976C247.139 188.976 247.141 188.976 247.144 188.975ZM247.067 189.262C247.096 189.256 247.119 189.233 247.123 189.203C247.124 189.194 247.124 189.185 247.121 189.176C247.119 189.167 247.115 189.159 247.109 189.152C247.103 189.144 247.096 189.138 247.089 189.134C247.081 189.129 247.072 189.127 247.063 189.125L246.565 189.063C246.556 189.061 246.547 189.062 246.538 189.065C246.529 189.067 246.521 189.071 246.514 189.077C246.507 189.082 246.501 189.089 246.496 189.097C246.492 189.105 246.489 189.114 246.488 189.123C246.487 189.132 246.487 189.141 246.49 189.15C246.492 189.159 246.496 189.167 246.502 189.174C246.507 189.181 246.514 189.187 246.522 189.192C246.53 189.196 246.539 189.199 246.548 189.2L247.046 189.263C247.054 189.263 247.06 189.263 247.067 189.262Z" fill="#FA9C70"/>
<path d="M285.165 188.699L284.18 193.965C284.18 193.965 285.073 198.948 291.896 195.288L290.376 187.711L285.165 188.699Z" fill="#FDAE88"/>
<path opacity="0.15" d="M290.376 187.711L285.165 188.699L284.738 190.983C284.861 191.021 284.986 191.058 285.109 191.093C285.701 191.261 286.306 191.403 286.885 191.596C287.339 191.748 287.789 191.94 288.121 192.219C288.469 192.511 288.638 192.872 288.655 193.255C288.685 193.884 288.229 194.425 287.905 194.981C287.696 195.338 287.578 195.821 287.128 196.065C286.802 196.242 286.376 196.299 285.958 196.286C287.098 196.838 288.939 196.876 291.895 195.289L290.376 187.711Z" fill="#33133F"/>
<path d="M286.002 170.969C286.002 170.969 274.859 184.141 280.168 187.644C285.477 191.148 292.609 187.459 292.609 187.459C292.609 187.459 295.104 188.406 296.839 185.742C298.239 183.593 296.635 183.208 296.635 183.208C296.635 183.208 300.938 178.15 297.625 174.778C294.311 171.408 286.002 170.969 286.002 170.969Z" fill="#FDAE88"/>
<path opacity="0.05" d="M289.733 183.224C289.587 183.617 288.989 183.758 288.394 183.539C287.8 183.319 287.436 182.823 287.58 182.43C287.726 182.037 288.324 181.897 288.919 182.116C289.514 182.335 289.878 182.831 289.733 183.224ZM283.577 179.74C283.432 180.133 282.833 180.273 282.24 180.053C281.646 179.834 281.282 179.338 281.426 178.945C281.571 178.552 282.17 178.411 282.764 178.631C283.358 178.85 283.722 179.347 283.577 179.74Z" fill="#33133F"/>
<path d="M285.769 176.522C285.716 176.492 285.681 176.436 285.681 176.372C285.681 176.315 285.65 175.012 283.848 174.825C283.751 174.814 283.682 174.729 283.692 174.633C283.703 174.538 283.788 174.468 283.884 174.477C286.007 174.697 286.029 176.355 286.029 176.372C286.029 176.469 285.951 176.546 285.855 176.546C285.824 176.545 285.794 176.537 285.769 176.522ZM288.69 178.233C288.671 178.222 288.654 178.207 288.64 178.19C288.58 178.114 288.593 178.005 288.668 177.945C288.681 177.934 289.99 176.93 291.736 178.496C291.808 178.561 291.813 178.671 291.749 178.743C291.685 178.815 291.575 178.821 291.503 178.756C289.973 177.382 288.896 178.208 288.885 178.217C288.858 178.24 288.825 178.253 288.79 178.256C288.755 178.259 288.72 178.251 288.69 178.233ZM284.793 181.035C284.74 181.005 284.693 180.968 284.651 180.925C284.384 180.647 284.456 180.209 284.459 180.19C284.468 180.135 284.502 180.089 284.552 180.065C285.574 179.542 286.075 178.333 286.079 178.321C286.116 178.232 286.218 178.189 286.307 178.225C286.399 178.262 286.44 178.364 286.403 178.453C286.382 178.507 285.874 179.73 284.797 180.33C284.794 180.435 284.813 180.591 284.904 180.685C284.989 180.773 285.137 180.805 285.343 180.777C285.366 180.774 285.389 180.776 285.411 180.782C285.433 180.787 285.454 180.798 285.472 180.812C285.49 180.826 285.505 180.843 285.517 180.863C285.528 180.883 285.536 180.904 285.539 180.927C285.542 180.95 285.54 180.973 285.534 180.995C285.529 181.017 285.518 181.038 285.504 181.056C285.491 181.074 285.473 181.09 285.453 181.101C285.433 181.113 285.412 181.12 285.389 181.123C285.148 181.152 284.947 181.123 284.793 181.035Z" fill="#2B4C54"/>
<path d="M281.723 181.891C281.723 181.891 283.001 183.663 285.452 183.873C285.43 184.93 281.936 185.708 281.723 181.891Z" fill="#FCFAF7"/>
<path d="M284.613 177.476C284.343 177.947 283.861 178.18 283.538 177.994C283.216 177.81 283.173 177.277 283.444 176.805C283.714 176.333 284.196 176.101 284.518 176.286C284.84 176.471 284.882 177.004 284.613 177.476ZM289.872 180.491C289.602 180.963 289.12 181.196 288.798 181.01C288.476 180.825 288.432 180.292 288.704 179.821C288.974 179.349 289.454 179.116 289.778 179.302C290.1 179.486 290.142 180.02 289.872 180.491Z" fill="#2B4C54"/>
<path opacity="0.05" d="M282.728 185.318C282.568 185.226 282.478 185.143 282.469 185.133C282.461 185.126 282.454 185.116 282.449 185.106C282.444 185.095 282.442 185.084 282.441 185.073C282.441 185.061 282.443 185.05 282.447 185.039C282.451 185.028 282.457 185.019 282.465 185.01C282.473 185.002 282.482 184.995 282.493 184.99C282.503 184.986 282.514 184.983 282.526 184.983C282.537 184.982 282.549 184.984 282.559 184.988C282.57 184.992 282.58 184.999 282.588 185.006C282.593 185.012 283.174 185.541 284.075 185.364C284.122 185.356 284.168 185.386 284.177 185.433C284.186 185.481 284.155 185.526 284.108 185.536C283.482 185.657 283.002 185.475 282.728 185.318ZM295.854 183.957C295.854 183.957 296.976 184.047 296.792 184.771C296.608 185.494 295.15 186.751 294.094 186.628C294.094 186.628 296.489 186.023 296.503 184.833C296.516 183.647 295.658 184.419 295.854 183.957Z" fill="#33133F"/>
<path d="M294.977 174.48C294.977 174.48 291.725 176.464 290.089 175.361C288.453 174.258 288.475 173.849 288.475 173.849C288.475 173.849 286.616 174.797 284.159 173.224C281.701 171.651 282.49 169.797 282.49 169.797C282.49 169.797 280.952 168.133 282.71 166.345C284.468 164.557 285.866 166.23 285.866 166.23C285.866 166.23 285.656 164.405 288.276 164.038C290.896 163.672 291.205 167.202 291.205 167.202C291.205 167.202 292.109 166.751 295.075 167.37C298.041 167.988 298.214 171.66 298.214 171.66C298.214 171.66 302.312 172.526 301.118 176.238C301.118 176.238 302.652 178.932 300.455 180.366C300.455 180.366 299.88 185.424 296.275 183.383C296.275 183.383 294.507 185.082 293.127 184.131C291.749 183.18 293.736 181.649 293.878 180.674C294.019 179.699 292.103 177.67 294.977 174.48Z" fill="#2B4C54"/>
<path d="M310.6 225.942C306.009 229.804 297.393 249.09 296.259 249.028C295.821 248.861 294.852 249.153 294.12 249.584C293.387 250.013 291.281 249.013 291.092 249.504C290.904 249.995 291.969 250.904 292.673 250.868C293.378 250.831 293.404 251.464 292.896 251.904C292.812 251.977 292.681 252.073 292.523 252.181C293.247 253.077 294.011 253.942 294.713 254.856C295.267 255.578 295.723 256.39 296.277 257.116C297.04 256.007 297.682 254.681 297.933 253.891C298.344 252.595 298.938 251.505 298.938 251.505C298.938 251.505 310.982 240.592 316.436 232.873C319.734 228.207 315.77 221.592 310.6 225.942Z" fill="#FDAE88"/>
<g opacity="0.2">
<path d="M291.189 249.471C291.32 249.369 291.609 249.451 291.726 249.489C291.726 249.489 291.782 249.732 291.634 249.729C291.487 249.727 291.058 249.573 291.189 249.471Z" fill="white"/>
</g>
<path d="M292.653 251.195L297.17 256.861C297.17 256.861 297.259 258.332 296.574 258.416C295.889 258.5 291.255 253.366 291.124 252.294C290.995 251.223 292.653 251.195 292.653 251.195Z" fill="#2B4C54"/>
<path d="M232.055 76.6037L255.297 66.9922L256.679 75.5596L232.055 76.6037Z" fill="#EEEDF7"/>
<path d="M237.039 115.023L258.624 120.202L255.172 127.039L237.039 115.023Z" fill="white"/>
<path d="M199.574 41.7848L201.353 22.6641L208.469 25.0941L199.574 41.7848Z" fill="#BDE0FB"/>
<path d="M239.623 46.2686C239.623 48.2034 238.055 49.7715 236.12 49.7715C234.185 49.7715 232.617 48.2034 232.617 46.2686C232.617 44.3337 234.185 42.7656 236.12 42.7656C238.055 42.7656 239.623 44.3337 239.623 46.2686Z" fill="#EEEDF7"/>
<path d="M156.332 68.5906L134.749 63.0781L134.629 71.7988L156.332 68.5906Z" fill="#BDE0FB"/>
<path d="M265.002 185.575C265.002 186.968 263.874 188.096 262.481 188.096C261.089 188.096 259.961 186.968 259.961 185.575C259.961 184.184 261.089 183.055 262.481 183.055C263.873 183.055 265.002 184.184 265.002 185.575Z" fill="#EEEDF7"/>
<path d="M146.522 149.355L121.527 152.141L124.446 160.314L146.522 149.355Z" fill="white"/>
<path d="M159.132 107.799C161.066 107.799 162.635 106.231 162.635 104.296C162.635 102.361 161.066 100.793 159.132 100.793C157.197 100.793 155.629 102.361 155.629 104.296C155.629 106.231 157.197 107.799 159.132 107.799Z" fill="white"/>
<path d="M166.14 49.7715C168.074 49.7715 169.643 48.2032 169.643 46.2686C169.643 44.3339 168.074 42.7656 166.14 42.7656C164.205 42.7656 162.637 44.3339 162.637 46.2686C162.637 48.2032 164.205 49.7715 166.14 49.7715Z" fill="#BDE0FB"/>
</svg>
